<?xml version="1.0" encoding="UTF-8" standalone="no"?>
<!-- Created with Inkscape (http://www.inkscape.org/) -->

<svg
   xmlns:dc="http://purl.org/dc/elements/1.1/"
   xmlns:cc="http://creativecommons.org/ns#"
   xmlns:rdf="http://www.w3.org/1999/02/22-rdf-syntax-ns#"
   xmlns:svg="http://www.w3.org/2000/svg"
   xmlns="http://www.w3.org/2000/svg"
   xmlns:sodipodi="http://sodipodi.sourceforge.net/DTD/sodipodi-0.dtd"
   xmlns:inkscape="http://www.inkscape.org/namespaces/inkscape"
   width="210mm"
   height="297mm"
   viewBox="0 0 210 297"
   version="1.1"
   id="svg8"
   sodipodi:docname="quadrant_vertices.svg"
   inkscape:version="0.92.4 (f8dce91, 2019-08-02)">
  <defs
     id="defs2" />
  <sodipodi:namedview
     id="base"
     pagecolor="#ffffff"
     bordercolor="#666666"
     borderopacity="1.0"
     inkscape:pageopacity="0.0"
     inkscape:pageshadow="2"
     inkscape:zoom="2.8"
     inkscape:cx="2002.7856"
     inkscape:cy="927.4492"
     inkscape:document-units="mm"
     inkscape:current-layer="layer1"
     showgrid="false"
     inkscape:window-width="3840"
     inkscape:window-height="2032"
     inkscape:window-x="0"
     inkscape:window-y="54"
     inkscape:window-maximized="1">
    <inkscape:grid
       type="xygrid"
       id="grid1075" />
  </sodipodi:namedview>
  <metadata
     id="metadata5">
    <rdf:RDF>
      <cc:Work
         rdf:about="">
        <dc:format>image/svg+xml</dc:format>
        <dc:type
           rdf:resource="http://purl.org/dc/dcmitype/StillImage" />
      </cc:Work>
    </rdf:RDF>
  </metadata>
  <g
     inkscape:label="Layer 1"
     inkscape:groupmode="layer"
     id="layer1">
    <path
       style="fill:none;stroke:#000000;stroke-width:0.26458332px;stroke-linecap:butt;stroke-linejoin:miter;stroke-opacity:1"
       d="m 108.11052,7.8143708 c -0.20045,0 -0.40121,0.011118 -0.60135,0 -0.73785,-0.040992 -0.53997,-0.096577 -1.33635,-0.2004523 -0.93991,-0.1225963 -0.6305,-0.034449 -1.5368,-0.066817 -0.37905,-0.013536 -0.758,-0.034426 -1.1359,-0.066817 -0.40189,-0.034448 -0.80008,-0.1092327 -1.20271,-0.1336347 -0.33347,-0.020211 -0.66817,0 -1.00226,0 -0.4009,0 -0.80181,0 -1.20271,0 -0.42318,0 -0.846519,-0.01175 -1.269534,0 -0.37914,0.01053 -0.756727,0.057338 -1.135894,0.066817 -0.512109,0.012803 -1.024535,0 -1.5368,0 -0.489995,0 -0.979988,0 -1.469983,0 -0.957715,0 -1.915432,0 -2.873147,0 -0.44545,0 -0.891024,0.010602 -1.336347,0 -0.490363,-0.011676 -0.979609,-0.055673 -1.469983,-0.066817 -0.489868,-0.011134 -0.980569,0.023873 -1.469982,0 -0.425011,-0.020733 -0.846355,-0.08909 -1.269532,-0.1336347 -0.445447,-0.022273 -0.890606,-0.051447 -1.336347,-0.066818 -0.445185,-0.015351 -0.890897,0 -1.336347,0 -0.200454,0 -0.402452,-0.024863 -0.601355,0 -0.160896,0.020111 -0.307782,0.1069782 -0.467723,0.1336349 -0.109847,0.018309 -0.222726,0 -0.334087,0 -0.178181,0 -0.356359,0 -0.53454,0"
       id="path821"
       inkscape:connector-curvature="0" />
    <path
       style="fill:none;stroke:#000000;stroke-width:0.26458332px;stroke-linecap:butt;stroke-linejoin:miter;stroke-opacity:1"
       d="m 106.23964,20.509673 c 0,0.08909 0,0.17818 0,0.26727 0,0.03838 0.0472,0.244456 -0.0668,0.267269 -0.0874,0.01747 -0.17818,0 -0.26727,0 -0.245,0 -0.49,0 -0.73499,0 -0.11136,0 -0.22301,-0.0079 -0.33409,0 -0.20117,0.01437 -0.39988,0.05766 -0.60136,0.06682 -0.60073,0.02731 -1.20309,-0.02146 -1.80407,0 -2.537358,0.09062 0.73302,0.06682 -1.9377,0.06682 -1.135894,0 -2.27179,0 -3.407686,0 -0.512265,0 -1.024533,0 -1.536798,0 -0.378632,0 -0.757788,0.0199 -1.135896,0 -0.469188,-0.02469 -0.935548,-0.08801 -1.403164,-0.133635 -1.716498,-0.167463 -0.891067,-0.08483 -2.472243,-0.267269 -0.200359,-0.02312 -0.401699,-0.03829 -0.601358,-0.06682 -0.580152,-0.08288 -1.719676,-0.292824 -2.338608,-0.334087 -0.311123,-0.02074 -0.62363,0 -0.935445,0 -0.244996,0 -0.489992,0 -0.734991,0 -0.267269,0 -0.534538,0 -0.801806,0 -0.496316,0 -0.730499,-0.02763 -1.202714,0.06682 -0.557866,0.111573 -0.341305,0.156509 -0.868627,0.200452 -0.133173,0.0111 -0.267817,-0.0121 -0.400905,0 -0.113099,0.01028 -0.221213,0.05428 -0.334087,0.06682 -0.08854,0.0098 -0.178178,0 -0.267268,0 -0.133634,0 -0.267269,0 -0.400905,0 -0.155906,0 -0.311814,0 -0.46772,0 -0.02228,0 -0.05107,0.01575 -0.06682,0 -0.01574,-0.01575 0,-0.04455 0,-0.06682 -0.04455,-0.02227 -0.08909,-0.04454 -0.133635,-0.06682"
       id="path827"
       inkscape:connector-curvature="0" />
    <path
       style="fill:none;stroke:#000000;stroke-width:0.26458332px;stroke-linecap:butt;stroke-linejoin:miter;stroke-opacity:1"
       d="m 79.111778,17.903795 c -0.08909,0.08909 -0.191672,0.166476 -0.267269,0.26727 -0.107889,0.143852 -0.227636,0.525493 -0.267268,0.668174 -0.369772,1.33117 -0.05272,0.270636 -0.334087,1.536799 -0.05898,0.265409 -0.200454,0.585662 -0.200454,0.868626 0,0.15749 0.03593,0.31329 0.06682,0.467722 0.09571,0.478568 0.134303,0.569394 0.334087,1.002261 0.06261,0.135656 0.126325,0.271181 0.200453,0.400904 0.01564,0.02735 0.03575,0.06164 0.06682,0.06682 0.109849,0.01831 0.222726,0 0.334089,0 0.06682,0 0.139785,0.028 0.200451,0 0.235834,-0.108846 0.440587,-0.275731 0.668173,-0.400904 0.218192,-0.120004 0.459111,-0.19881 0.668174,-0.334087 0.448376,-0.290125 0.975995,-0.958295 1.135896,-1.469982 0.05356,-0.171393 0.05487,-0.355371 0.06682,-0.534539 0.01524,-0.228473 0.08266,-0.593433 -0.200454,-0.734991 -0.140861,-0.07043 -0.310536,-0.05699 -0.46772,-0.06682 -0.200062,-0.0125 -0.400904,0 -0.601358,0 -0.222724,0 -0.445447,0 -0.668173,0"
       id="path829"
       inkscape:connector-curvature="0" />
    <path
       style="fill:none;stroke:#000000;stroke-width:0.26458332px;stroke-linecap:butt;stroke-linejoin:miter;stroke-opacity:1"
       d="m 105.37101,17.569708 c -0.24319,0 -0.33047,-0.03522 -0.53454,0.06682 -0.0718,0.03591 -0.12664,0.102001 -0.20045,0.133634 -0.0844,0.03618 -0.18129,0.03457 -0.26727,0.06682 -0.30397,0.113988 -0.29296,0.159326 -0.53454,0.400904 -0.0891,0.08909 -0.20694,0.156662 -0.26727,0.26727 -0.0776,0.142347 -0.0985,0.309437 -0.13363,0.467721 -0.12644,0.568973 -0.19268,0.946404 -0.13364,1.5368 0.024,0.239713 0.18587,0.691234 0.26727,0.935444 0.0446,0.133634 0.0627,0.279229 0.13364,0.400904 0.0876,0.150257 0.19492,0.296532 0.33408,0.400904 0.46928,0.351957 1.23845,0.629166 1.80407,0.668174 0.29226,0.02016 0.58517,-0.05969 0.86863,-0.133635 0.46712,-0.121859 1.24939,-0.524862 1.5368,-0.935443 0.18287,-0.261248 0.34386,-0.554877 0.4009,-0.868626 0.0797,-0.438264 0,-0.890899 0,-1.336348 0,-0.405777 0.0634,-0.647619 -0.13363,-1.002261 -0.0459,-0.0826 -0.11165,-0.168159 -0.20046,-0.200452 -0.30421,-0.110623 -1.40027,-0.06241 -1.5368,-0.06682 -0.35686,-0.01151 -0.71537,-0.01803 -1.06907,-0.06682 -0.16441,-0.02268 -0.82563,-0.189703 -1.1359,-0.267269"
       id="path831"
       inkscape:connector-curvature="0" />
    <path
       style="fill:none;stroke:#000000;stroke-width:0.26458332px;stroke-linecap:butt;stroke-linejoin:miter;stroke-opacity:1"
       d="m 81.362082,3.9950353 c -0.02228,0.1113624 -0.02069,0.2303074 -0.06682,0.334087 -0.04523,0.1017641 -0.133633,0.1781797 -0.200451,0.2672694 -0.08909,0.1336347 -0.202896,0.2537611 -0.267271,0.4009043 -0.0932,0.2130354 -0.132747,0.4457171 -0.200451,0.6681737 -0.0882,0.2898132 -0.176046,0.5797495 -0.267269,0.8686261 -0.223391,0.7074042 -0.0669,0.1005726 -0.267269,1.0022607 -0.04454,0.200452 -0.121579,0.3963688 -0.133636,0.6013563 -0.01056,0.1792566 0.0316,0.3584599 0.06682,0.5345391 0.03773,0.1886664 0.123225,0.6032021 0.334087,0.7349913 0.335238,0.2095243 0.723056,-0.093066 1.00226,-0.2004523 0.937109,-0.3604263 1.117632,-0.3191447 1.870887,-0.9354431 0.461791,-0.377829 0.781601,-0.7584599 1.069078,-1.2695304 0.04907,-0.087234 0.372169,-0.7518691 0.267269,-0.9354433 -0.184912,-0.3235942 -0.990354,-0.3219585 -1.135896,-0.334087 -0.244149,-0.020347 -0.491339,-0.025649 -0.734991,0 -0.171971,0.018103 -0.743188,0.1903677 -0.935442,0.2672696 -0.09248,0.036993 -0.178181,0.08909 -0.267269,0.1336347"
       id="path833"
       inkscape:connector-curvature="0" />
    <path
       style="fill:none;stroke:#000000;stroke-width:0.26458332px;stroke-linecap:butt;stroke-linejoin:miter;stroke-opacity:1"
       d="m 107.50917,4.8075886 c -0.245,0.08909 -0.50182,0.1506842 -0.735,0.2672694 -0.39324,0.1966196 -0.81817,0.57209 -1.13589,0.868626 -0.16119,0.1504419 -0.32998,0.295551 -0.46772,0.4677217 -0.13126,0.1640745 -0.21505,0.3613931 -0.33409,0.534539 -0.12618,0.1835344 -0.28197,0.346228 -0.4009,0.5345391 -0.36446,0.5770501 -0.4562,0.834046 -0.66818,1.4699823 -0.0513,0.1538254 -0.1212,0.3060534 -0.13363,0.4677217 -0.021,0.2736004 0.12815,0.6759242 0.4009,0.8018082 0.18644,0.08605 0.39662,0.117886 0.60136,0.133635 0.37752,0.02904 0.7655,0.07857 1.13589,0 0.38051,-0.08071 0.74704,-0.249567 1.06908,-0.4677215 0.37836,-0.2563035 0.6733,-0.6182283 1.00226,-0.9354434 0.29476,-0.2842304 0.57909,-0.579084 0.86863,-0.868626 0.26727,-0.2672693 0.56569,-0.5066585 0.80181,-0.8018084 0.21238,-0.2654755 0.3825,-0.5645438 0.53454,-0.868626 0.14281,-0.2856198 0.37356,-0.830672 0.26727,-1.202713 -0.0493,-0.1726573 -0.13533,-0.3459252 -0.26727,-0.4677214 -0.29179,-0.2693397 -0.9688,-0.4820319 -1.33635,-0.5345393 -0.22049,-0.031498 -0.44545,0 -0.66817,0 -0.44545,0 -0.8909,0 -1.33635,0"
       id="path835"
       inkscape:connector-curvature="0" />
    <path
       style="fill:none;stroke:#000000;stroke-width:0.26458332px;stroke-linecap:butt;stroke-linejoin:miter;stroke-opacity:1"
       d="m 102.49786,26.790507 c -0.16543,0.06617 -0.3691,-0.06618 -0.53454,0 -0.41006,0.164026 -0.6019,0.534979 -0.93544,0.801809 -0.25083,0.200663 -0.53618,0.353915 -0.80181,0.534538 -0.643077,0.437295 -1.021656,0.762397 -1.737251,1.069078 -0.323683,0.138723 -0.664411,0.23472 -1.00226,0.334086 -1.061096,0.31209 -1.051465,0.330939 -1.937703,0.400905 -0.595521,0.04702 -1.904828,0.178805 -2.672696,0.133636 -0.491165,-0.02889 -0.9799,-0.09007 -1.469983,-0.133636 C 89.55784,29.766627 90.067494,29.85258 88.132125,29.530018 87.640873,29.448143 87.14469,29.385953 86.662142,29.26275 86.095688,29.118123 85.546334,28.913087 84.991709,28.728212 83.593775,28.262233 83.397351,28.171746 82.051744,27.659134 81.584021,27.480953 81.12099,27.289937 80.648579,27.124594 80.229717,26.977993 79.791085,26.888503 79.37905,26.723689 78.898056,26.531292 78.434559,26.29632 77.975885,26.055516 76.413341,25.235181 76.925971,25.419212 75.436824,24.385081 75.0664,24.127843 74.651626,23.933633 74.300928,23.65009 c -1.877123,-1.517675 -1.665075,-1.44527 -2.939965,-2.873147 -0.529185,-0.592688 -1.092499,-1.137618 -1.5368,-1.80407 -0.488043,-0.732064 -0.728697,-1.381931 -1.135896,-2.138156 -0.1235,-0.22936 -0.581388,-0.911541 -0.668174,-1.26953 -0.13893,-0.573095 -0.228597,-1.157069 -0.334087,-1.737252 -0.02817,-0.15495 -0.06682,-0.310232 -0.06682,-0.467722 0,-0.486013 0.132651,-1.690666 0.200453,-2.138156 0.118359,-0.781175 0.170114,-1.119575 0.467723,-1.8040692 0.473591,-1.0892615 0.330755,-0.5885651 1.00226,-1.6704344 0.215622,-0.3473908 0.357986,-0.7405293 0.601355,-1.0690783 0.206235,-0.278415 0.484093,-0.4960406 0.734992,-0.7349911 0.58498,-0.557123 0.8631,-0.7704936 1.5368,-1.2695303 0.669576,-0.4959826 1.358535,-0.9711637 2.071339,-1.4031648 0.349662,-0.2119172 0.701296,-0.4227205 1.069078,-0.6013566 0.413017,-0.2006081 0.84401,-0.3620308 1.269529,-0.534539 0.44818,-0.1816946 1.85071,-0.7273919 2.338609,-0.868626 0.461836,-0.1336893 0.939578,-0.2066006 1.403165,-0.33408686 0.855782,-0.23533997 1.684838,-0.56087375 2.539061,-0.80180856 0.493212,-0.13911108 2.076275,-0.521916 2.605878,-0.60135643 1.409587,-0.21143825 2.729953,-0.1357308 4.142677,-0.0668174 0.445476,0.0217305 0.892556,0.0224383 1.336347,0.0668174 0.226009,0.0226007 0.444576,0.0937065 0.668176,0.13363475 0.400103,0.0714473 0.804627,0.1184935 1.202711,0.20045215 0.488667,0.10060792 1.751677,0.44553577 2.204974,0.60135643 0.340281,0.11697105 0.660903,0.2871184 1.00226,0.40090429 0.261358,0.0871192 0.543856,0.10371936 0.801809,0.20045213 0.279792,0.1049215 0.534541,0.2672695 0.801809,0.4009043 0.267269,0.1336348 0.54455,0.2488876 0.80181,0.4009043 0.234058,0.1383082 0.447773,0.3085443 0.668173,0.4677217 0.180557,0.1304031 0.356359,0.2672695 0.534538,0.4009041 0.178181,0.133635 0.365434,0.2559571 0.534548,0.4009044 0.14348,0.1229918 0.26726,0.2672696 0.4009,0.4009043 0.13363,0.1336347 0.27448,0.2604307 0.4009,0.4009043 0.0745,0.082775 0.12171,0.1885244 0.20046,0.2672694 0.0787,0.078745 0.1746,0.1386795 0.26726,0.2004523 0.0414,0.027626 0.0984,0.031602 0.13364,0.066817 0.0157,0.015748 0,0.044545 0,0.066817"
       id="path837"
       inkscape:connector-curvature="0" />
    <path
       style="fill:none;stroke:#000000;stroke-width:0.26458332px;stroke-linecap:butt;stroke-linejoin:miter;stroke-opacity:1"
       d="m 101.56242,4.5403183 c 0,-0.1781797 0.0236,-0.3579225 0,-0.534539 -0.0214,-0.1607238 -0.0891,-0.3118147 -0.13363,-0.4677217 -0.12082,-0.4228665 -0.11075,-0.4963996 -0.33409,-0.8686261 -0.12395,-0.2065816 -0.27157,-0.3981069 -0.4009,-0.6013564 -0.68141,-1.07077555 -0.45243,-0.663353 -0.93545,-1.87088665 -0.08909,-0.2227246 -0.187431,-0.44196766 -0.267269,-0.66817385 -0.244652,-0.6931836 -0.01566,-0.2357043 -0.267268,-0.8018085 -0.05426,-0.1220849 -0.203978,-0.330561 -0.133636,-0.4009043 0.02228,-0.022272 0.0547,0.037742 0.06682,0.066817 0.100266,0.2406392 0.184832,0.4876766 0.267269,0.7349912 0.118065,0.3541951 0.229991,0.71052848 0.334086,1.06907805 0.0964,0.33205081 0.172284,0.66980269 0.267268,1.00226075 0.21655,0.7579064 0.34044,1.027667 0.53454,1.8040693 0.16858,0.6743147 0.13364,0.5732823 0.13364,1.2027128 0,0.2039384 0.0324,0.4697166 -0.0668,0.6681737 -0.13589,0.2717729 -0.27113,0.3258847 -0.53454,0.4677217 -0.175401,0.094446 -0.360913,0.1696043 -0.534541,0.2672696 -0.183134,0.1030126 -0.346604,0.2401192 -0.534537,0.334087 -0.258977,0.1294871 -0.538597,0.2134479 -0.80181,0.3340867 -0.940866,0.4704332 -0.621323,0.3230272 -1.5368,0.7349914 -0.899991,0.4049958 -0.307644,0.092511 -1.00226,0.534539 -0.419915,0.2672178 -0.251558,0.076657 -0.467723,0.4009043"
       id="path839"
       inkscape:connector-curvature="0" />
    <path
       style="fill:none;stroke:#000000;stroke-width:0.26458332px;stroke-linecap:butt;stroke-linejoin:miter;stroke-opacity:1"
       d="m 151.40819,4.874406 c 0,0.1113623 -0.013,0.2234872 0,0.3340867 0.14941,1.2700177 0.1471,0.3368463 0.20045,1.6704347 0.0107,0.2670559 0,0.534539 0,0.8018087 0,0.4677214 0,0.9354431 0,1.4031647 0,0.2672697 0.01,0.5347224 0,0.8018087 -0.0888,2.3973785 -0.16794,2.7680745 -0.20045,5.0113035 -0.0116,0.801725 0,1.603617 0,2.405426 0,0.311814 -0.005,0.623671 0,0.935443 0.0172,1.046902 0.0488,2.09353 0.0668,3.140417 0.0135,0.77942 0,1.559072 0,2.338608 0,0.200453 -0.009,0.401094 0,0.601357 0.0136,0.312314 0.0446,0.623629 0.0668,0.935443"
       id="path841"
       inkscape:connector-curvature="0" />
    <path
       style="fill:none;stroke:#000000;stroke-width:0.26458332px;stroke-linecap:butt;stroke-linejoin:miter;stroke-opacity:1"
       d="m 167.17709,3.9389626 c -0.0723,0.5059908 -0.0891,0.4664962 -0.0668,1.0022607 0.0887,2.1288957 0.023,0.00931 0.20045,2.1381561 0.037,0.4444651 0.0396,0.8911757 0.0668,1.3363477 0.0396,0.6462255 0.0898,1.2917514 0.13363,1.9377039 0.0891,1.314075 0.17818,2.628151 0.26727,3.942226 0.0453,0.668123 0.0635,1.338544 0.13364,2.004521 0.0636,0.60458 0.19624,1.200313 0.26727,1.804069 0.0627,0.532718 0.0882,1.069158 0.13363,1.603618 0.0436,0.512347 0.0798,1.025425 0.13364,1.536799 0.0353,0.335192 0.10778,0.66621 0.13363,1.002261 0.0188,0.244275 0,0.489994 0,0.734991 0,0.311815 0,0.623629 0,0.935444"
       id="path843"
       inkscape:connector-curvature="0" />
    <path
       style="fill:none;stroke:#000000;stroke-width:0.26458332px;stroke-linecap:butt;stroke-linejoin:miter;stroke-opacity:1"
       d="m 166.70937,0.33082402 c -0.34404,0.24779623 -0.6809,0.42491246 -1.06908,0.60135642 -0.0641,0.0291449 -0.13364,0.0445449 -0.20045,0.0668174 -0.13364,0.0890899 -0.25991,0.19036156 -0.40091,0.26726946 -0.10529,0.057434 -0.23429,0.067104 -0.33408,0.1336348 -0.11012,0.073407 -0.48061,0.50247 -0.53454,0.6013564 -0.0675,0.1236634 -0.0855,0.2685218 -0.13364,0.4009043 -0.041,0.1127197 -0.13363,0.2141461 -0.13363,0.3340868 0,0.033105 0.2274,0.6801713 0.26727,0.7349914 0.11115,0.1528415 0.26726,0.2672693 0.4009,0.4009043 0.2241,0.2241058 0.43102,0.474703 0.73499,0.6013564 0.12506,0.052107 0.26947,0.033959 0.40091,0.066817 0.13665,0.034164 0.26726,0.08909 0.4009,0.1336347 0.13363,0.044545 0.26852,0.085496 0.4009,0.1336349 0.35288,0.1283203 0.38268,0.2004521 0.80181,0.2004521 0.15749,0 0.31238,-0.040926 0.46772,-0.066817 0.16216,-0.027026 0.46897,-0.06806 0.60136,-0.200452 0.27161,-0.2716088 0.32149,-0.8210904 0.33409,-1.1358957 0.0247,-0.616328 -0.13332,-1.6033009 -0.60136,-2.0713387 -0.33431,-0.3343135 -0.75315,-0.4227657 -1.20271,-0.4677217 -0.22162,-0.022162 -0.44637,0.020164 -0.66818,0 -1.59081,-0.14461947 -0.35253,-0.13363476 -1.00226,-0.13363476"
       id="path845"
       inkscape:connector-curvature="0" />
    <path
       style="fill:none;stroke:#000000;stroke-width:0.26458332px;stroke-linecap:butt;stroke-linejoin:miter;stroke-opacity:1"
       d="m 149.00276,2.0012585 c -0.19748,0.068672 -0.45295,-0.1283097 -0.66817,-0.066817 -0.2787,0.079626 -0.3061,0.1700153 -0.46772,0.4009043 -0.0921,0.131576 -0.1831,0.2641203 -0.26728,0.4009041 -0.0941,0.1529292 -0.19296,0.3042507 -0.26726,0.4677217 -0.038,0.083601 -0.0427,0.1786737 -0.0668,0.2672697 -0.0427,0.1564325 -0.0972,0.3097281 -0.13364,0.4677216 -0.0275,0.1191655 -0.1023,0.5084847 -0.0668,0.6681737 0.026,0.1170848 0.08,0.2268085 0.13363,0.334087 0.0581,0.116159 0.10436,0.2467272 0.20045,0.334087 0.58285,0.5298575 1.40916,0.5334498 2.13816,0.4009041 0.27956,-0.050829 0.89394,-0.3064169 1.13589,-0.4677217 0.17086,-0.1139031 0.36065,-0.2256896 0.46772,-0.4009041 0.4122,-0.6745012 0.39115,-1.8234678 -0.0668,-2.4722431 -0.33658,-0.4768178 -0.67879,-0.6528928 -1.20271,-0.868626 -0.14994,-0.061737 -0.31182,-0.08909 -0.46773,-0.1336348"
       id="path847"
       inkscape:connector-curvature="0" />
    <path
       style="fill:none;stroke:#000000;stroke-width:0.26458332px;stroke-linecap:butt;stroke-linejoin:miter;stroke-opacity:1"
       d="m 150.20547,21.445117 c -0.28349,0.358118 -0.71198,0.533983 -1.06908,0.801808 -0.13916,0.104372 -0.30058,0.191973 -0.4009,0.334087 -0.35593,0.504232 -0.45702,0.959441 -0.60136,1.5368 -0.13787,0.551491 -0.18562,0.554236 -0.0668,1.069078 0.0317,0.137256 0.0394,0.296201 0.13363,0.400904 0.28927,0.321407 0.99634,0.388761 1.33635,0.400904 0.66409,0.02372 1.38009,-0.04951 1.9377,-0.467721 0.13458,-0.10093 1.26018,-1.282329 1.40317,-1.670435 0.19188,-0.520823 -0.24407,-1.168432 -0.46772,-1.5368 -0.5764,-0.949362 -0.61094,-0.930415 -1.46999,-1.536799 -0.10609,-0.07489 -0.21088,-0.159384 -0.33408,-0.200452 -0.14941,-0.0498 -0.31182,-0.04454 -0.46773,-0.06682"
       id="path849"
       inkscape:connector-curvature="0" />
    <path
       style="fill:none;stroke:#000000;stroke-width:0.26458332px;stroke-linecap:butt;stroke-linejoin:miter;stroke-opacity:1"
       d="m 168.11253,18.839239 c 0,0.155907 0,0.311814 0,0.467721 0,0.02227 0.0178,0.05345 0,0.06682 -0.0797,0.05976 -0.18186,0.08239 -0.26727,0.133634 -0.13772,0.08263 -0.26727,0.17818 -0.4009,0.26727 -0.20045,0.133635 -0.41438,0.248986 -0.60136,0.400904 -0.50678,0.411757 -0.56836,0.625868 -0.93544,1.202713 -0.0854,0.134222 -0.72579,1.108292 -0.80181,1.336348 -0.18948,0.568427 -0.16841,0.975438 0,1.536799 0.12323,0.410792 0.31362,0.812643 0.73499,1.002261 0.27098,0.121941 0.57286,0.229075 0.86863,0.200452 1.07863,-0.104384 1.38107,-0.540262 2.13815,-1.202713 0.10663,-0.0933 0.96258,-0.816148 1.06908,-1.069078 0.26205,-0.622361 0.0842,-1.486073 -0.0668,-2.071338 -0.0724,-0.280357 -0.16579,-0.566199 -0.33408,-0.801809 -0.29252,-0.409517 -0.78702,-0.675631 -1.20272,-0.935443"
       id="path851"
       inkscape:connector-curvature="0" />
    <path
       style="fill:none;stroke:#000000;stroke-width:0.26458332px;stroke-linecap:butt;stroke-linejoin:miter;stroke-opacity:1"
       d="m 169.31524,2.4689802 c 0.0891,-0.022272 0.17636,-0.05383 0.26727,-0.066817 0.14477,-0.020681 0.42261,0.022046 0.53454,0.066817 0.12058,0.048232 0.2164,0.1455322 0.33409,0.2004521 0.21738,0.1014426 0.46248,0.1438516 0.66817,0.2672696 0.24458,0.146748 0.44545,0.3563594 0.66818,0.5345391 0.22272,0.1781796 0.44545,0.3563593 0.66817,0.534539 0.22272,0.1781796 0.47065,0.3287802 0.66817,0.534539 0.82261,0.8568851 1.19599,1.5079641 1.80407,2.5390604 0.23297,0.395038 0.46308,0.7925126 0.66818,1.202713 0.79047,1.5809484 0.74585,1.5680164 1.26953,3.0735996 0.49294,1.417214 0.68922,1.791494 0.93544,3.207234 0.14027,0.806529 0.30169,2.547225 0.33409,3.340869 0.0209,0.511841 0,1.024533 0,1.5368 0,2.215808 0.11082,1.183368 -0.20045,2.873147 -0.1789,0.971127 -0.22956,1.802223 -0.73499,2.672696 -0.19046,0.328002 -0.51191,0.561883 -0.735,0.868626 -1.19832,1.647698 -0.56208,1.104887 -1.87088,2.80633 -0.30788,0.400235 -0.67117,0.754639 -1.00226,1.135896 -0.17704,0.203864 -1.99049,2.341618 -2.2718,2.605876 -0.79419,0.746067 -1.62924,1.144818 -2.53906,1.737254 -0.49697,0.323609 -0.98128,0.666279 -1.46998,1.00226 -0.22403,0.154022 -0.43084,0.335098 -0.66817,0.46772 -0.5217,0.291539 -1.04641,0.585748 -1.60362,0.801809 -0.53912,0.209045 -1.10473,0.348054 -1.67043,0.467723 -1.17811,0.249216 -2.47753,0.336756 -3.67496,0.400904 -2.12747,0.113972 -1.58294,0.08815 -3.67495,-0.06682 -1.13637,-0.08417 -2.42456,-0.132053 -3.54133,-0.400904 -1.80433,-0.434377 -2.13147,-0.732809 -3.80859,-1.603616 -0.90548,-0.470154 -2.25035,-1.133536 -3.0736,-1.737254 -0.52209,-0.382868 -0.97841,-0.848183 -1.46998,-1.269529 -0.59379,-0.508963 -1.84125,-1.524196 -2.40542,-2.138156 -1.18389,-1.288346 -2.05414,-2.673856 -2.87315,-4.209495 -0.2578,-0.48338 -0.51128,-0.969914 -0.73499,-1.469983 -0.15542,-0.347411 -0.28349,-0.70705 -0.40091,-1.069078 -0.29499,-0.909567 -0.5414,-1.780216 -0.60135,-2.739512 -0.0167,-0.267674 0.0392,-0.535037 0.0668,-0.801809 0.0758,-0.733222 0.19097,-1.779441 0.40091,-2.472243 0.22019,-0.726617 0.6571,-1.200872 1.00226,-1.870887 0.20091,-0.390008 0.33332,-0.81286 0.53454,-1.202713 0.15551,-0.301307 0.97579,-1.545436 1.13589,-1.804069 0.35729,-0.577149 0.42584,-0.831859 0.80181,-1.5368 0.16901,-0.316881 0.34173,-0.632457 0.53454,-0.9354431 0.7568,-1.1892587 0.0903,0.070875 0.66817,-1.0022608 0.0708,-0.1315495 0.12962,-0.2693545 0.20046,-0.4009043 0.0851,-0.1581028 0.19202,-0.3046828 0.26727,-0.4677217 0.059,-0.1278982 0.0891,-0.2672693 0.13363,-0.400904 0.0445,-0.133635 0.0966,-0.2650046 0.13364,-0.4009044 0.0299,-0.109566 0.0527,-0.2213962 0.0668,-0.334087 0.008,-0.066301 0,-0.1336346 0,-0.200452 0,-0.022273 0.0158,-0.082566 0,-0.066818 -0.0352,0.035216 -0.0445,0.08909 -0.0668,0.133635 -0.0668,0.1336346 -0.13727,0.265513 -0.20046,0.4009043 -0.12873,0.2758514 -0.60819,1.3825688 -0.66817,1.5367997 -0.18898,0.4859332 -0.3431,0.9850133 -0.53454,1.4699823 -0.51897,1.314716 -0.4515,0.828446 -0.86862,2.204974 -0.32159,1.061216 -0.20569,0.876775 -0.40091,1.804069 -0.0378,0.179724 -0.10078,0.353838 -0.13363,0.534539 -0.012,0.06574 0,0.133635 0,0.200452 0,0.02227 -0.0223,0.06682 0,0.06682 0.0498,0 0.0914,-0.04042 0.13363,-0.06682 0.56736,-0.354601 0.55016,-0.379913 1.1359,-1.00226 0.11922,-0.126673 0.21953,-0.269991 0.33408,-0.400904 0.19732,-0.225507 0.42512,-0.42584 0.60136,-0.668174 0.36709,-0.504746 0.68067,-1.221412 0.86862,-1.804069 0.35701,-1.1067252 0.46379,-2.2665759 0.20046,-3.4076873 -0.0633,-0.2745124 -0.17818,-0.5345393 -0.26727,-0.8018087 -0.24602,-0.7380478 -0.026,-0.4582178 -0.46772,-0.8018087 -0.11258,-0.087556 -0.19979,-0.2193033 -0.33409,-0.2672694 -0.5314,-0.1897843 -1.35743,0.057379 -1.80407,0.1336347 -2.48464,0.4242062 -0.58309,0.1464538 -2.87315,0.4009044 -0.35693,0.039659 -0.71086,0.1080476 -1.06908,0.1336347 -0.26659,0.019042 -0.53722,-0.037798 -0.8018,0 -0.4852,0.069314 -0.54923,0.1613513 -0.86863,0.4009043"
       id="path853"
       inkscape:connector-curvature="0" />
    <g
       id="g1024">
      <path
         inkscape:connector-curvature="0"
         id="path855"
         d="m 37.48455,51.512938 c 0.182464,0.127725 0.352078,0.273179 0.53454,0.400904 0.131575,0.0921 0.282511,0.158742 0.400905,0.267269 0.151368,0.138756 0.271417,0.308353 0.400904,0.467723 0.347811,0.428074 0.656402,0.896157 1.069078,1.269529 0.833152,0.753805 0.713457,0.463772 1.603616,1.069078 0.636998,0.43316 0.812969,0.632928 1.336349,1.069078 0.134766,0.112307 2.024161,1.66992 2.204972,1.804069 0.322463,0.239247 0.668176,0.44545 1.002263,0.668176 0.334086,0.267269 0.663956,0.539896 1.00226,0.801807 0.352226,0.272693 0.742225,0.499168 1.069078,0.801809 0.278304,0.257691 0.472818,0.594537 0.734991,0.868627 0.287121,0.30017 1.221724,1.088787 1.536798,1.336347 0.350266,0.275209 0.726877,0.516639 1.069081,0.801809 1.333801,1.111501 0.524891,0.524891 1.536798,1.536798 0.145198,0.145201 0.315782,0.262776 0.467722,0.400905 0.09323,0.08475 0.17245,0.184303 0.267269,0.267271 0.341236,0.29858 0.202208,0.07032 0.334087,0.334087"
         style="fill:none;stroke:#000000;stroke-width:0.26458332px;stroke-linecap:butt;stroke-linejoin:miter;stroke-opacity:1" />
      <path
         inkscape:connector-curvature="0"
         id="path857"
         d="m 51.716654,39.084906 c 0.08909,0.11136 0.166425,0.233243 0.267268,0.334086 0.123005,0.123003 0.268111,0.221724 0.400905,0.334087 1.415166,1.197449 -0.756772,-0.604152 1.202714,0.935442 0.29219,0.229579 2.194002,1.812322 2.405425,2.004523 0.326292,0.29663 0.594148,0.656201 0.935442,0.935443 2.089669,1.709729 0.52079,-0.07191 2.672697,2.138156 0.385947,0.396377 0.666866,0.889667 1.069078,1.269531 3.765764,3.556556 -1.362673,-1.995191 2.806329,2.405425 0.337339,0.356079 0.588608,0.789059 0.935442,1.135896 0.30253,0.302528 0.667049,0.535951 1.002263,0.801807 0.441127,0.349861 1.272138,0.960617 1.670434,1.403167 0.256341,0.284822 0.425524,0.638871 0.668173,0.935443 0.163629,0.19999 0.451602,0.545488 0.668174,0.734991 0.08381,0.07333 0.181718,0.129159 0.267269,0.200451 0.09679,0.08066 0.178181,0.178181 0.267271,0.267271"
         style="fill:none;stroke:#000000;stroke-width:0.26458332px;stroke-linecap:butt;stroke-linejoin:miter;stroke-opacity:1" />
      <path
         inkscape:connector-curvature="0"
         id="path859"
         d="m 49.51168,64.408692 c 0.08909,-0.08909 0.18661,-0.170479 0.267268,-0.267269 0.03188,-0.03826 0.04455,-0.08909 0.06682,-0.133635 0.178179,-0.178179 0.338971,-0.37564 0.534538,-0.534538 0.492694,-0.400315 1.140508,-0.574331 1.737254,-0.734991 0.286933,-0.07725 0.573291,-0.167638 0.868625,-0.200454 0.846301,-0.09403 1.784635,0.06323 2.472242,0.601358 0.618408,0.483971 1.080363,1.08929 1.403165,1.804069 0.30742,0.680713 0.472969,1.687084 0.534541,2.405425 0.02853,0.332867 0.05492,0.672719 0,1.002261 -0.06774,0.406447 -0.498663,0.975354 -0.80181,1.202713 -0.480044,0.360035 -1.22311,0.562626 -1.804069,0.601356 -0.334087,0.02228 -0.670184,-0.02397 -1.00226,-0.06682 -0.537988,-0.06942 -1.415066,-0.249954 -1.937705,-0.46772 -0.319845,-0.13327 -0.874562,-0.440994 -1.135894,-0.734991 -0.125571,-0.141266 -0.210637,-0.505219 -0.200453,-0.668174 0.01416,-0.226695 0.03206,-0.465018 0.133636,-0.668176 0.172987,-0.345974 0.791331,-0.924967 1.069078,-1.202711"
         style="fill:none;stroke:#000000;stroke-width:0.26458332px;stroke-linecap:butt;stroke-linejoin:miter;stroke-opacity:1" />
      <path
         inkscape:connector-curvature="0"
         id="path861"
         d="m 35.947752,50.243409 c 0.213235,0.159927 0.437843,0.336102 0.668173,0.467719 0.172964,0.09884 0.365609,0.16169 0.534538,0.267272 0.18887,0.118044 0.356359,0.267269 0.53454,0.400902 0.08909,0.06682 0.194334,0.116298 0.267269,0.200454 0.571336,0.659233 0.801809,0.958834 0.801809,1.804069 0,0.223835 0.01431,0.459557 -0.06682,0.668173 -0.154183,0.396476 -0.7621,0.864428 -1.069078,1.069078 -0.232203,0.154803 -0.47272,0.305533 -0.734991,0.400905 -0.412599,0.150035 -1.192078,0.174789 -1.603616,0.133636 -0.382574,-0.03826 -0.774914,-0.06809 -1.135896,-0.200454 -0.680138,-0.249383 -1.147077,-0.751763 -1.5368,-1.336347 -0.210026,-0.315042 -0.391681,-0.651613 -0.534538,-1.00226 -0.229865,-0.564211 -0.274209,-1.28085 -0.200454,-1.870887 0.08685,-0.694844 0.318051,-1.407875 0.80181,-1.937705 0.246308,-0.269764 0.559501,-0.473538 0.868624,-0.668174 1.125273,-0.708504 2.293019,-0.863295 3.608139,-0.734991 0.408744,0.03988 0.833175,0.0881 1.202714,0.267269 0.384976,0.186655 0.692779,0.506396 1.00226,0.801809 0.659913,0.629917 1.220679,2.119098 1.336349,2.739514 0.110519,0.592789 -0.04194,1.208077 -0.133635,1.80407 -0.112819,0.733324 -0.751499,1.755798 -1.269532,2.138156 -0.354028,0.261308 -1.5309,0.643935 -2.204971,0.868624"
         style="fill:none;stroke:#000000;stroke-width:0.26458332px;stroke-linecap:butt;stroke-linejoin:miter;stroke-opacity:1" />
      <path
         inkscape:connector-curvature="0"
         id="path863"
         d="m 50.246671,42.759862 c -0.36486,0 -0.284964,0.01259 -0.734991,-0.06682 -0.223679,-0.03947 -0.455044,-0.05511 -0.668174,-0.133635 -0.215172,-0.07927 -0.403706,-0.217824 -0.601358,-0.334087 -0.181107,-0.106535 -0.380563,-0.191111 -0.534538,-0.334087 -0.338801,-0.3146 -0.621818,-0.91599 -0.734991,-1.336347 -0.199327,-0.740359 -0.136057,-1.242904 -0.06682,-2.004523 0.01228,-0.134921 0.02093,-0.273433 0.06682,-0.400904 0.347779,-0.96605 0.67278,-1.631368 1.269529,-2.472243 0.473644,-0.667404 0.811808,-1.080924 1.603618,-1.336347 0.813472,-0.262411 1.931943,-0.264223 2.739512,-0.06682 0.514271,0.125712 1.050684,0.278149 1.469983,0.601358 0.674026,0.51956 1.276249,1.155536 1.737251,1.870885 0.208275,0.323186 0.210569,0.751546 0.200454,1.135896 -0.03152,1.19761 -0.306583,1.657427 -1.069078,2.539061 -1.030383,1.191381 -1.498674,1.51272 -2.80633,2.338609 -0.581644,0.367353 -1.235069,0.76453 -1.937705,0.868625 -0.702694,0.104103 -0.87821,0.01431 -1.469983,-0.133636"
         style="fill:none;stroke:#000000;stroke-width:0.26458332px;stroke-linecap:butt;stroke-linejoin:miter;stroke-opacity:1" />
      <path
         inkscape:connector-curvature="0"
         id="path865"
         d="m 63.743781,52.98292 c 0.06682,-0.08909 0.121708,-0.188523 0.200454,-0.267269 0.05678,-0.05678 0.133633,-0.08909 0.200451,-0.133635 0.317568,-0.211712 0.521673,-0.361061 0.868627,-0.534538 0.501711,-0.250857 0.722127,-0.321749 1.269529,-0.467722 0.109733,-0.02926 0.220771,-0.05926 0.334086,-0.06682 0.825432,-0.05503 1.78412,0.119671 2.472243,0.601355 0.854557,0.598189 1.668296,1.804321 1.737252,2.873148 0.05301,0.821645 -0.07528,1.606055 -0.46772,2.338609 -0.149482,0.279033 -0.394454,0.495419 -0.601358,0.734992 -0.216416,0.250587 -0.418992,0.516956 -0.668174,0.734991 -0.935918,0.818928 -2.295848,1.440995 -3.541321,1.536801 -0.44469,0.03421 -0.89772,0.01397 -1.336347,-0.06682 -0.751914,-0.138512 -1.646462,-0.503717 -2.138156,-1.135896 -0.238805,-0.307036 -0.347988,-0.698992 -0.467722,-1.069078 -0.126415,-0.390745 -0.241652,-0.79283 -0.267269,-1.202714 -0.03327,-0.532395 0.265456,-1.510337 0.534538,-1.937703 0.282689,-0.448976 1.191641,-1.262507 1.670436,-1.469982 0.332677,-0.144161 0.711134,-0.142719 1.069078,-0.200454 0.883285,-0.142465 0.701932,-0.133633 1.202711,-0.133633"
         style="fill:none;stroke:#000000;stroke-width:0.26458332px;stroke-linecap:butt;stroke-linejoin:miter;stroke-opacity:1" />
      <path
         inkscape:connector-curvature="0"
         id="path867"
         d="m 53.453905,33.739515 c 0.993344,-0.141906 -0.08601,0.02866 1.00226,-0.200453 0.243674,-0.0513 0.488069,-0.101428 0.734992,-0.133633 0.265943,-0.03469 0.534466,-0.04543 0.801809,-0.06682 0.289472,-0.02315 0.578379,-0.05745 0.868624,-0.06682 0.859565,-0.02773 1.555377,-0.01638 2.405428,0.133636 0.361735,0.06384 0.713846,0.173786 1.069078,0.267269 1.238819,0.326003 1.773261,0.431871 2.939965,1.00226 0.528638,0.258445 1.028523,0.572132 1.536798,0.868627 0.382775,0.223284 2.719774,1.617646 3.140416,1.937702 0.565261,0.430091 1.072751,0.931283 1.603619,1.403165 0.375719,0.333973 1.586881,1.396251 2.071338,1.937705 0.547685,0.612116 1.054841,1.25975 1.603618,1.870887 0.431544,0.480582 0.922851,0.906968 1.336347,1.403165 0.179099,0.214919 1.983158,2.663063 2.271792,3.140416 0.368938,0.610167 1.197872,2.318507 1.469983,3.006784 0.442555,1.119407 0.645998,2.089962 0.935442,3.274052 0.09236,0.377846 0.209569,0.751226 0.267269,1.135893 0.125767,0.838435 0.177649,2.081686 0.133636,2.939965 -0.02066,0.402842 -0.09627,0.801077 -0.133636,1.202714 -0.05174,0.556189 -0.0676,1.115761 -0.133633,1.670434 -0.106331,0.893172 -0.37931,1.888323 -0.601358,2.739514 -0.128202,0.491442 -0.226402,0.99301 -0.400905,1.46998 -0.210243,0.57467 -1.172583,2.356149 -1.403165,2.806332 -1.050615,2.051201 -0.09664,0.386792 -1.469982,2.472243 -0.319432,0.485063 -0.568307,1.019945 -0.935443,1.469983 -0.328678,0.402894 -0.746014,0.725064 -1.135896,1.069078 -1.644083,1.45066 -0.569772,0.447677 -1.870887,1.469982 -0.697457,0.548003 -1.355508,1.146657 -2.071338,1.670434 -0.200962,0.147045 -0.441479,0.231045 -0.668174,0.334087 -2.489165,1.131437 -0.57723,0.238156 -3.207234,1.269529 -2.644013,1.03687 -0.812911,0.422936 -3.34087,1.403164 -0.551764,0.213951 -1.097682,0.452443 -1.670433,0.601359 -0.308981,0.08033 -2.733942,0.423539 -3.140417,0.46772 -2.489454,0.270594 -5.032271,0.21745 -7.483546,-0.334087 -2.061181,-0.463764 -3.468841,-1.061149 -5.412208,-1.870885 -0.4509,-0.187875 -0.908341,-0.365953 -1.33635,-0.601358 C 42.232564,76.354485 41.540776,75.78176 40.691786,75.032653 40.32551,74.709471 39.98963,74.352845 39.622708,74.030395 39.25426,73.706608 38.838637,73.436725 38.486812,73.094952 37.492426,72.128977 37.491765,71.99473 36.816376,71.157247 36.418946,70.664434 35.986037,70.199278 35.613665,69.687264 35.44952,69.46157 35.346946,69.19697 35.21276,68.952273 c -0.244446,-0.445751 -0.482766,-0.89495 -0.734991,-1.336347 -0.193299,-0.338275 -0.444095,-0.6458 -0.601356,-1.00226 -0.179128,-0.406019 -0.260572,-0.848527 -0.400904,-1.269529 -0.126974,-0.380918 -0.278035,-0.753636 -0.400905,-1.135896 -0.07771,-0.241763 -0.135826,-0.489408 -0.200453,-0.734991 -0.09119,-0.346517 -0.218237,-0.859481 -0.267269,-1.202714 -0.03479,-0.243536 -0.04349,-0.49009 -0.06682,-0.734991 -0.02122,-0.222827 -0.0544,-0.444683 -0.06682,-0.668174 -0.0099,-0.177906 0,-0.356359 0,-0.534537 0,-0.35636 0,-0.712719 0,-1.069078 0,-0.178181 0,-0.356362 0,-0.534541 0,-0.02228 0.01574,-0.05107 0,-0.06682 -0.01574,-0.01574 -0.04454,0 -0.06682,0 -0.177417,0 -0.138152,-0.01574 -0.334087,0.267269 -0.130527,0.188537 -0.206891,0.410562 -0.334089,0.601358 -0.695921,1.043882 -2.065105,2.964286 -2.873145,4.142677 -0.178181,0.267269 -0.356362,0.53454 -0.53454,0.801809 -0.08909,0.155908 -0.167664,0.318312 -0.267269,0.467722 -0.03494,0.05241 -0.08909,0.08909 -0.133636,0.133634 -0.02228,0.02228 -0.04454,0.08909 -0.06682,0.06682 -0.02228,-0.02228 0.05403,-0.03803 0.06682,-0.06682 0.07729,-0.173895 0.137589,-0.354926 0.200454,-0.534538 0.09307,-0.265912 0.157496,-0.542348 0.267268,-0.801809 0.135835,-0.321067 0.311815,-0.623629 0.467723,-0.935443 0.178178,-0.356359 0.351494,-0.715192 0.534538,-1.069078 0.246824,-0.477197 0.568322,-1.12073 0.935442,-1.5368 0.405273,-0.459309 0.557686,-0.479296 1.069078,-0.734992 0.178181,-0.08909 0.345551,-0.204274 0.53454,-0.267268 0.673828,-0.22461 1.529059,-0.197144 2.204974,0 0.29781,0.08686 0.610508,0.162007 0.868625,0.334086 0.492956,0.328637 1.323977,1.304296 1.737254,1.737252 0.195736,0.205057 0.407067,0.394925 0.601355,0.601355 0.396817,0.421619 0.722697,0.874507 1.069079,1.33635 0.06682,0.08909 0.129159,0.181718 0.200451,0.267269 0.149383,0.17926 0.133635,0.06008 0.133635,0.200451"
         style="fill:none;stroke:#000000;stroke-width:0.26458332px;stroke-linecap:butt;stroke-linejoin:miter;stroke-opacity:1" />
    </g>
    <path
       style="fill:none;stroke:#000000;stroke-width:0.26458332px;stroke-linecap:butt;stroke-linejoin:miter;stroke-opacity:1"
       d="m 99.891984,39.819897 c 0.200456,0.133633 0.409986,0.254561 0.601356,0.400905 0.18807,0.143819 0.35414,0.314383 0.53454,0.467719 0.56752,0.482391 1.35397,1.104527 1.87089,1.603619 0.30611,0.295561 0.55719,0.645488 0.86862,0.935442 0.33606,0.31288 0.72517,0.564401 1.06908,0.868627 0.23592,0.208698 0.44171,0.449255 0.66818,0.668174 0.0884,0.08545 2.26403,2.153539 2.47224,2.338607 1.35276,1.20246 1.25002,0.943689 2.53906,2.271792 0.32979,0.339788 0.5955,0.739439 0.93544,1.069078 0.39717,0.385132 0.86377,0.693007 1.26953,1.069078 0.50824,0.471048 0.98623,0.973825 1.46999,1.469982 0.38495,0.394833 0.7224,0.83787 1.13589,1.202714 2.38769,2.106785 -0.12259,-0.574564 2.27179,1.737252 0.36484,0.352261 1.03735,1.252357 1.40317,1.670433 0.1037,0.118523 0.22873,0.217027 0.33408,0.334087 0.46639,0.51821 0.052,0.172646 0.53454,0.53454"
       id="path871"
       inkscape:connector-curvature="0" />
    <path
       style="fill:none;stroke:#000000;stroke-width:0.26458332px;stroke-linecap:butt;stroke-linejoin:miter;stroke-opacity:1"
       d="m 117.06405,67.482293 c -0.16947,0.282448 -0.3161,0.546963 -0.53454,0.801807 -0.27721,0.323418 -0.76533,0.727448 -1.06908,1.002263 -0.17827,0.16129 -1.63603,1.499026 -1.73725,1.603615 -0.37301,0.385453 -0.67776,0.835853 -1.06907,1.202714 -0.32498,0.30466 -0.72764,0.515731 -1.06908,0.801807 -1.95696,1.639615 -0.89078,0.900811 -2.80633,2.672696 -0.40614,0.375671 -0.85832,0.698982 -1.26953,1.069078 -0.40638,0.365742 -1.96005,2.023859 -2.07134,2.138156 -0.11055,0.11353 -2.37621,2.372871 -2.40543,2.405425 -0.38101,0.424556 -0.68671,0.913014 -1.06908,1.33635 -0.24302,0.269062 -0.53954,0.484645 -0.8018,0.734991 -0.22785,0.217485 -0.44545,0.445447 -0.66818,0.668174 -0.22272,0.222723 -0.44545,0.445447 -0.668172,0.668173 -0.178181,0.178178 -0.361838,0.351044 -0.53454,0.534538 -0.183777,0.195262 -0.733007,0.826156 -0.935442,1.069078 -0.0913,0.109558 -0.173358,0.226761 -0.267272,0.334086 -0.122814,0.140362 -0.26856,0.268563 -0.400902,0.400905"
       id="path873"
       inkscape:connector-curvature="0" />
    <path
       style="fill:none;stroke:#000000;stroke-width:0.26458332px;stroke-linecap:butt;stroke-linejoin:miter;stroke-opacity:1"
       d="m 118.53403,54.519721 c -0.54959,0.395737 -1.25207,0.467169 -1.80407,0.868624 -0.32594,0.237051 -0.96394,0.995249 -1.20271,1.33635 -0.14895,0.212786 -0.25683,0.452056 -0.4009,0.668173 -0.12355,0.185317 -0.28418,0.344853 -0.40091,0.534538 -0.12494,0.203033 -0.23161,0.660884 -0.20045,0.868627 0.0722,0.481182 0.52096,1.400233 0.80181,1.737252 0.4737,0.568444 1.15483,0.921654 1.87089,1.069078 0.39327,0.08097 0.80164,0.08591 1.20271,0.06682 1.21491,-0.05785 1.93802,-0.148481 2.93997,-0.868627 0.31996,-0.229975 0.54072,-0.573489 0.8018,-0.868624 0.25131,-0.284086 0.56537,-0.529384 0.73499,-0.868627 0.45054,-0.901073 0.5001,-1.834002 0.33409,-2.80633 -0.0783,-0.45843 -0.19745,-0.918146 -0.4009,-1.336347 -0.20275,-0.416761 -0.4492,-0.835136 -0.80181,-1.135895 -0.93784,-0.799926 -1.81475,-1.004859 -3.00678,-0.868628 -0.52183,0.05964 -0.77846,0.31541 -1.1359,0.601359"
       id="path875"
       inkscape:connector-curvature="0" />
    <path
       style="fill:none;stroke:#000000;stroke-width:0.26458332px;stroke-linecap:butt;stroke-linejoin:miter;stroke-opacity:1"
       d="m 113.99045,63.139163 c -0.17818,0.08909 -0.37517,0.147743 -0.53454,0.267269 -0.11409,0.08557 -0.18377,0.218474 -0.26727,0.334087 -0.5064,0.701177 -0.67948,0.876961 -0.93544,1.670433 -0.30961,0.959811 -0.4009,1.367274 -0.4009,2.33861 0,0.268195 -0.0102,0.544923 0.0668,0.801809 0.16283,0.542756 0.88873,1.023853 1.26953,1.269529 0.36,0.232257 0.72642,0.475364 1.1359,0.601356 0.73941,0.227512 1.90038,0.27745 2.6727,0.06682 0.35568,-0.097 0.78258,-0.171638 1.00226,-0.467723 0.33573,-0.452506 0.4402,-1.048115 0.53453,-1.603616 0.24706,-1.454861 0.0741,-2.653503 -0.53453,-4.009043 -0.20256,-0.451144 -0.51265,-0.859443 -0.86863,-1.202711 -0.28046,-0.270444 -0.62481,-0.504799 -1.00226,-0.601358 -0.60572,-0.154951 -1.24567,-0.133633 -1.87089,-0.133633 -1.08353,0 -1.54277,0.07722 -2.40542,0.200451"
       id="path877"
       inkscape:connector-curvature="0" />
    <path
       style="fill:none;stroke:#000000;stroke-width:0.26458332px;stroke-linecap:butt;stroke-linejoin:miter;stroke-opacity:1"
       d="m 95.615671,82.048481 c -0.364572,0.440455 -0.892278,0.711489 -1.269529,1.135896 -0.266758,0.300101 -0.582879,0.609902 -0.668173,1.00226 -0.146672,0.674688 -0.158139,1.399247 0,2.071339 0.164695,0.699957 0.844116,1.553408 1.536798,1.870887 0.717264,0.328745 1.458148,0.188394 2.204974,0.06682 0.996781,-0.162267 1.733814,-0.227783 2.472243,-0.935445 0.678196,-0.649936 0.830136,-1.225534 0.935446,-2.138156 0.0206,-0.178382 -0.0143,-0.36281 -0.0668,-0.534538 -0.19351,-0.633304 -0.31923,-1.308074 -0.66817,-1.870887 -0.486693,-0.784985 -1.762958,-1.881902 -2.672699,-2.271792 -0.56133,-0.24057 -1.908934,-0.5055 -2.605876,-0.534538 -0.179411,-0.0075 -0.356359,0.04454 -0.53454,0.06682"
       id="path879"
       inkscape:connector-curvature="0" />
    <path
       style="fill:none;stroke:#000000;stroke-width:0.26458332px;stroke-linecap:butt;stroke-linejoin:miter;stroke-opacity:1"
       d="m 98.087914,35.409949 c -0.273878,-0.09129 -0.564332,-0.235066 -0.868624,-0.133636 -0.358894,0.119632 -1.260266,0.746898 -1.536801,0.935445 -0.224626,0.153154 -0.485293,0.266555 -0.668173,0.46772 -0.816986,0.898684 -1.202714,2.212258 -1.202714,3.407688 0,0.998958 0.07002,1.779849 0.668176,2.605878 0.231108,0.319149 0.516184,0.625589 0.868625,0.801807 0.688313,0.344159 2.4913,0.184796 3.006783,0 0.622302,-0.223089 1.123982,-0.697026 1.670434,-1.069078 0.50082,-0.340982 0.98528,-0.705551 1.46998,-1.069078 0.22818,-0.171135 0.49306,-0.309393 0.66818,-0.534538 0.3002,-0.385979 0.56891,-0.809617 0.73499,-1.269531 0.12948,-0.35858 0.2289,-0.766744 0.13363,-1.135894 -0.2693,-1.043551 -1.88687,-1.677196 -2.60588,-1.937705 -2.480211,-0.898628 -3.417135,-0.696807 -6.147195,-0.801809"
       id="path881"
       inkscape:connector-curvature="0" />
    <path
       style="fill:none;stroke:#000000;stroke-width:0.26458332px;stroke-linecap:butt;stroke-linejoin:miter;stroke-opacity:1"
       d="m 119.20221,74.631753 c 0.0891,0.133633 0.19544,0.257249 0.26727,0.400904 0.063,0.125992 0.0891,0.267269 0.13363,0.400902 0.0633,0.189804 0.23496,0.685523 0.26727,0.868627 0.0776,0.439751 0.095,1.194763 0.0668,1.603619 -0.0232,0.336243 -0.0836,0.668946 -0.13364,1.00226 -0.0169,0.11231 -0.0309,0.226346 -0.0668,0.334087 -0.0536,0.160917 -0.13247,0.312319 -0.20045,0.46772 -0.44267,1.011795 -0.10056,0.243414 -0.735,1.469982 -0.17205,0.332648 -0.76621,1.568887 -1.00226,1.937705 -0.18009,0.281393 -0.40541,0.531217 -0.60135,0.80181 -0.27183,0.375374 -0.53454,0.757263 -0.80181,1.135895 -0.26727,0.378632 -0.50632,0.778849 -0.80181,1.135894 -0.24098,0.291192 -0.54005,0.529143 -0.80181,0.801809 -0.27288,0.284255 -0.53454,0.579086 -0.80181,0.868627 -0.35636,0.334087 -0.72958,0.651052 -1.06908,1.00226 -0.30726,0.317863 -0.54466,0.701437 -0.86862,1.00226 -0.30359,0.281906 -0.66286,0.497412 -1.00226,0.734992 -0.32894,0.230259 -0.66818,0.445449 -1.00226,0.668173 -0.35636,0.222726 -0.72279,0.430099 -1.06908,0.668174 -0.36707,0.252359 -0.70201,0.549449 -1.06908,0.801809 -0.19656,0.135133 -1.82397,1.1376 -2.07134,1.269531 -1.02675,0.547598 -2.15313,0.905997 -3.27405,1.202712 -0.37602,0.09954 -0.75787,0.175627 -1.1359,0.267271 -0.35698,0.08654 -0.71023,0.188772 -1.06907,0.267269 -1.007643,0.220422 -1.119803,0.201258 -2.13816,0.334087 -0.499086,0.0651 -0.782947,0.133633 -1.336347,0.133633 -0.844354,0 -1.140436,-0.08234 -1.937705,-0.200451 -0.311579,-0.04616 -0.626131,-0.07415 -0.935442,-0.133636 -0.393269,-0.07563 -1.388153,-0.364284 -1.737252,-0.46772 -0.588475,-0.174363 -1.155729,-0.310118 -1.670436,-0.668173 -0.217059,-0.151001 -1.215289,-1.127601 -1.403165,-1.33635 -0.190807,-0.212005 -0.338696,-0.460809 -0.534538,-0.668173 -0.18415,-0.194982 -0.423912,-0.333436 -0.601358,-0.534538 -0.159393,-0.180647 -0.271563,-0.398108 -0.400902,-0.601358 -0.751472,-1.180883 -0.395615,-0.563592 -0.935445,-1.937703 -1.058156,-2.69349 0.226563,0.711007 -0.534537,-1.403164 -0.128916,-0.358095 -0.287385,-0.705811 -0.400905,-1.069078 -0.109564,-0.350608 -0.169587,-0.714979 -0.267271,-1.069079 -0.08056,-0.292031 -0.186709,-0.576595 -0.267269,-0.868627 -0.09768,-0.354099 -0.175789,-0.713324 -0.267269,-1.069078 -0.149662,-0.582019 -0.485794,-1.789086 -0.601356,-2.405425 -0.608274,-3.244119 0.171657,0.554612 -0.200453,-1.603618 -0.07719,-0.447664 -0.180563,-0.890429 -0.267269,-1.336347 -0.0692,-0.355904 -0.129347,-0.713549 -0.200451,-1.069078 -0.08481,-0.424056 -0.192725,-0.843552 -0.267272,-1.269532 -0.09892,-0.56524 -0.257632,-1.841502 -0.334086,-2.472242 -0.04588,-0.378474 -0.101973,-0.755968 -0.133633,-1.135896 -0.03519,-0.422297 -0.04193,-0.846498 -0.06682,-1.269529 -0.01966,-0.334251 -0.05668,-0.667586 -0.06682,-1.002261 -0.01215,-0.400722 0,-0.801809 0,-1.202713 0,-0.44545 -0.01273,-0.89108 0,-1.336347 0.0096,-0.334693 0.04716,-0.66801 0.06682,-1.00226 0.02487,-0.423032 0.03346,-0.847082 0.06682,-1.269532 0.06462,-0.818576 0.181504,-1.590664 0.267268,-2.405425 0.04918,-0.467257 0.111805,-0.933834 0.133633,-1.403165 0.02278,-0.489466 -0.01289,-0.980157 0,-1.469982 0.09877,-3.753324 0.06682,2.405549 0.06682,-2.605879 0,-0.44545 -0.02405,-0.891548 0,-1.336347 0.02058,-0.380688 0.09474,-0.756642 0.133636,-1.135896 0.0502,-0.489447 0.08771,-0.980114 0.133636,-1.469983 0.08357,-0.891431 0.181573,-1.781463 0.267269,-2.672693 0.08901,-0.925672 0.137472,-1.697302 0.267269,-2.605879 0.03522,-0.246512 0.07141,-0.493876 0.133635,-0.734991 0.305999,-1.185752 0.732192,-2.345259 1.202711,-3.474503 0.195718,-0.469723 0.414518,-0.929841 0.601359,-1.403165 0.147425,-0.373481 0.221337,-0.776764 0.400904,-1.135896 0.179565,-0.359132 0.450046,-0.665154 0.668174,-1.00226 0.271901,-0.420217 0.538792,-0.843698 0.801806,-1.269532 0.204737,-0.331478 0.36381,-0.693446 0.601358,-1.00226 0.211252,-0.274627 0.495496,-0.484611 0.734992,-0.734991 0.250616,-0.262009 0.489992,-0.534541 0.734991,-0.801809 0.267269,-0.267269 0.53983,-0.52935 0.801807,-0.80181 0.294928,-0.306723 0.555958,-0.646824 0.868627,-0.935442 0.394322,-0.363987 1.20564,-0.905245 1.670433,-1.202714 0.675415,-0.432263 1.067123,-0.674727 1.80407,-1.00226 0.553683,-0.246081 1.370957,-0.508775 1.937705,-0.668173 0.72087,-0.202745 1.528305,-0.387345 2.271792,-0.467723 0.802136,-0.08672 1.601216,-0.06682 2.405426,-0.06682 0.57361,0 1.17141,-0.01177 1.73725,0.06682 0.42834,0.05949 0.84872,0.167606 1.26953,0.267272 0.4258,0.100848 0.84635,0.222723 1.26953,0.334086 0.42318,0.111361 0.84635,0.222724 1.26953,0.334087 1.85004,0.486852 0.71142,0.171776 2.60588,0.734991 0.3783,0.11247 0.76725,0.193136 1.13589,0.334087 0.70975,0.271373 1.63981,0.79498 2.27179,1.202711 0.322,0.207738 0.61492,0.458177 0.93545,0.668176 0.32589,0.213514 0.6812,0.38063 1.00226,0.601356 0.73778,0.507225 1.88068,1.461852 2.47224,2.071338 0.31979,0.329483 0.57088,0.719548 0.86863,1.069078 1.04244,1.223743 0.3658,0.215189 1.26953,1.737252 0.20236,0.340833 0.97991,1.657561 1.20271,2.071338 0.14167,0.263102 0.30641,0.518327 0.4009,0.801809 0.12987,0.38961 0.17818,0.801809 0.26727,1.202714 0.0891,0.400905 0.18673,0.800005 0.26727,1.202714 0.13443,0.672126 0.21389,1.395137 0.26727,2.071338 0.0357,0.451874 0.0953,1.529802 0.0668,2.071338 -0.008,0.157274 -0.0547,0.310695 -0.0668,0.467723 -0.0325,0.422513 -0.0316,0.84723 -0.0668,1.269529 -0.0489,0.586136 -0.16084,1.209836 -0.20046,1.804069 -0.007,0.111117 0,0.222724 0,0.334087 0,0.267269 0,0.53454 0,0.801809 0,0.04455 0,0.08909 0,0.133636 0,0.02228 -0.0157,0.05107 0,0.06681 0.0157,0.01574 0.0446,0 0.0668,0 0.0445,0 0.0891,0 0.13364,0 0.0566,0 0.36436,0.01463 0.4009,0 0.0746,-0.02982 0.13073,-0.09379 0.20045,-0.133633 0.34836,-0.199059 0.32087,-0.09147 0.66817,-0.467723 0.15107,-0.163658 0.26561,-0.357616 0.40091,-0.534537 0.15426,-0.201724 0.33406,-0.385437 0.46772,-0.601359 0.18364,-0.296642 0.55046,-1.102137 0.66817,-1.469982 0.51131,-1.597832 0.0661,-0.40835 0.40091,-2.138156 0.0616,-0.318384 0.18474,-0.621829 0.26727,-0.935443 0.17439,-0.662664 -0.0726,0.01723 0.20045,-0.801809 0.44479,-1.334357 -0.0193,0.25604 0.33409,-1.069078 0.0654,-0.245276 0.17147,-0.541007 0.20045,-0.801809 0.01,-0.08854 0,-0.178178 0,-0.267269 0,-0.02228 0.0157,-0.08257 0,-0.06682 -0.0352,0.03522 -0.0421,0.0904 -0.0668,0.133636 -0.40104,0.701826 0.0204,-0.03686 -0.46772,0.668173 -0.004,0.0051 -0.66628,1.066597 -0.66817,1.069079 -0.16292,0.213042 -0.36179,0.39621 -0.53454,0.601355 -0.18373,0.218173 -0.35636,0.44545 -0.53454,0.668176 -0.34123,0.426535 -0.60312,0.83439 -1.06908,1.135893 -0.18417,0.119169 -0.39637,0.18918 -0.60136,0.267272 -0.6384,0.243202 -1.37842,0.46772 -2.07133,0.46772 -0.22384,0 -0.44659,-0.03516 -0.66818,-0.06682 -0.24651,-0.03521 -0.49876,-0.05489 -0.73499,-0.133633 -0.23623,-0.07874 -0.4505,-0.213156 -0.66817,-0.334087 -0.54341,-0.301895 -0.98919,-0.670174 -1.40317,-1.135896 -0.18949,-0.21318 -0.35288,-0.448275 -0.53454,-0.668173 -0.24156,-0.292415 -0.51692,-0.558298 -0.73499,-0.868627 -0.54029,-0.86446 -1.20092,-1.956438 -1.80407,-2.80633 -0.21141,-0.2979 -0.44679,-0.578059 -0.66817,-0.868627 -0.13498,-0.17716 -0.26991,-0.354412 -0.40091,-0.534538 -0.18429,-0.25341 -0.0475,-0.157395 -0.26726,-0.267269"
       id="path883"
       inkscape:connector-curvature="0" />
    <path
       style="fill:none;stroke:#000000;stroke-width:0.26458332px;stroke-linecap:butt;stroke-linejoin:miter;stroke-opacity:1"
       d="m 178.93695,45.232105 c 0.0223,0.155906 0.0743,0.310409 0.0668,0.46772 -0.0443,0.931217 -0.29124,1.382787 -0.53454,2.33861 -0.25347,0.99578 -1.13658,4.912788 -1.26952,5.545841 -0.33361,1.588585 -1.08449,5.74076 -1.46999,7.216277 -0.31873,1.219957 -0.76069,2.404354 -1.13589,3.608139 -0.15934,0.51121 -0.30271,1.027396 -0.46773,1.536801 -0.34728,1.07206 -0.73431,2.1312 -1.06907,3.207234 -0.28901,0.928957 -0.51163,1.87774 -0.80181,2.806329 -1.06144,3.396599 -0.62166,1.496224 -1.40317,4.34313 -0.14585,0.531334 -0.29848,1.062231 -0.4009,1.603619 -0.1184,0.625816 0.0448,0.779036 -0.20045,1.269529 -0.0282,0.05635 -0.0891,0.08909 -0.13364,0.133636"
       id="path887"
       inkscape:connector-curvature="0" />
    <path
       style="fill:none;stroke:#000000;stroke-width:0.26458332px;stroke-linecap:butt;stroke-linejoin:miter;stroke-opacity:1"
       d="m 152.87817,75.700831 c -0.35688,-0.624531 -0.23987,-0.369755 -0.53454,-1.135896 -0.13662,-0.355224 -0.29154,-0.704538 -0.40091,-1.069078 -0.0916,-0.305446 -0.10396,-0.6315 -0.20045,-0.935445 -0.34953,-1.101016 -0.72766,-2.193425 -1.13589,-3.274049 -0.34936,-0.924769 -0.75668,-1.826586 -1.1359,-2.739515 -0.22214,-0.534781 -0.46835,-1.060101 -0.66817,-1.603616 -0.35727,-0.971777 -0.64,-1.970039 -1.00226,-2.939965 -0.51487,-1.378508 -1.61623,-3.868676 -2.20498,-5.211757 -0.178,-0.406064 -1.69595,-3.85962 -1.9377,-4.343127 -0.3299,-0.659808 -0.71773,-1.289064 -1.06908,-1.937706 -0.22776,-0.420486 -0.41999,-0.860763 -0.66817,-1.269531 -0.13179,-0.217067 -0.31536,-0.398198 -0.46772,-0.601356 -0.6869,-0.915858 -0.0475,-0.0713 -0.53454,-0.801809 -0.15724,-0.235852 -0.28443,-0.329576 -0.40091,-0.601356 -0.0175,-0.04094 0,-0.08909 0,-0.133635"
       id="path889"
       inkscape:connector-curvature="0" />
    <path
       style="fill:none;stroke:#000000;stroke-width:0.26458332px;stroke-linecap:butt;stroke-linejoin:miter;stroke-opacity:1"
       d="m 169.31524,77.97262 c -0.16051,-0.08025 -0.33442,-0.217014 -0.53454,-0.133633 -0.54005,0.225023 -0.82694,0.627002 -1.20271,1.069078 -0.10548,0.124092 -0.73959,0.918139 -0.80181,1.135896 -0.0798,0.279223 -0.0668,0.578228 -0.0668,0.868624 0,0.649637 0.0125,1.091539 0.46772,1.603619 0.26757,0.301019 1.06455,0.721913 1.46998,0.734991 0.4282,0.01381 0.86115,-0.07097 1.26953,-0.200454 1.36857,-0.433935 1.43991,-0.65886 2.47224,-1.469982 0.28724,-0.225687 0.61588,-0.404434 0.86863,-0.668174 0.67928,-0.70881 1.12962,-1.680916 0.86862,-2.672693 -0.0507,-0.192654 -0.1264,-0.393677 -0.26726,-0.534541 -0.16215,-0.162144 -0.38467,-0.259077 -0.60136,-0.334087 -0.69433,-0.240344 -1.60426,-0.389662 -2.33861,-0.267268 -0.43797,0.07299 -0.68237,0.254457 -1.00226,0.467719"
       id="path891"
       inkscape:connector-curvature="0" />
    <path
       style="fill:none;stroke:#000000;stroke-width:0.26458332px;stroke-linecap:butt;stroke-linejoin:miter;stroke-opacity:1"
       d="m 150.07184,72.359961 c -0.11136,0.08909 -0.22273,0.178178 -0.33409,0.267269 -0.0445,0.04454 -0.0858,0.09264 -0.13363,0.133636 -0.10828,0.09281 -0.24598,0.15513 -0.33409,0.267268 -0.25724,0.327398 -0.62721,1.085059 -0.73499,1.469983 -0.079,0.282099 -0.0922,0.578623 -0.13364,0.868627 -0.0254,0.17776 -0.0668,0.354973 -0.0668,0.534538 0,0.346138 0.12913,0.937485 0.33408,1.202714 0.24094,0.311798 0.57909,0.534537 0.86863,0.801809 0.7657,0.706802 0.93821,1.086493 2.07134,1.202711 1.24931,0.128135 1.51653,-0.15439 2.47224,-0.801809 0.343,-0.232355 0.70931,-0.442042 1.00226,-0.734992 0.68492,-0.684918 0.98088,-1.382656 1.1359,-2.338607 0.0606,-0.37375 0.0719,-0.764161 0,-1.135896 -0.0645,-0.333062 -0.24475,-0.634277 -0.40091,-0.935442 -0.15649,-0.301815 -0.27868,-0.644752 -0.53454,-0.868627 -0.29984,-0.262363 -0.69219,-0.40532 -1.06907,-0.534538 -0.71479,-0.24507 -1.45708,-0.329594 -2.20498,-0.267271 -0.22635,0.01887 -0.44545,0.08909 -0.66817,0.133636"
       id="path893"
       inkscape:connector-curvature="0" />
    <path
       style="fill:none;stroke:#000000;stroke-width:0.26458332px;stroke-linecap:butt;stroke-linejoin:miter;stroke-opacity:1"
       d="m 136.842,42.559409 c -0.18824,0.376467 -0.18995,0.43611 -0.60136,0.801809 -0.22642,0.20126 -0.54575,0.297984 -0.73499,0.534538 -0.26313,0.328916 -0.94462,1.856925 -1.06908,2.271791 -0.20704,0.690126 -0.15583,0.94134 0,1.603619 0.0323,0.137117 0.0555,0.283697 0.13364,0.400902 0.19298,0.289478 0.40177,0.578038 0.66817,0.801809 0.29833,0.250595 0.62699,0.496631 1.00226,0.601358 0.8921,0.248957 2.53291,0.233805 3.4745,0.133633 0.27346,-0.02909 2.29222,-0.286895 2.60588,-0.734991 0.73722,-1.053169 0.0973,-3.150616 -0.26727,-4.009043 -0.36729,-0.864918 -0.83262,-1.714948 -1.46998,-2.405425 -0.9956,-1.078569 -1.79999,-1.149647 -3.0736,-1.202714 -0.0917,-0.0038 -0.17818,0.04454 -0.26727,0.06682"
       id="path895"
       inkscape:connector-curvature="0" />
    <path
       style="fill:none;stroke:#000000;stroke-width:0.26458332px;stroke-linecap:butt;stroke-linejoin:miter;stroke-opacity:1"
       d="m 177.40015,40.020348 c -0.26383,-0.0077 -0.28601,0.305268 -0.46772,0.400905 -0.37031,0.194897 -0.75865,0.353456 -1.1359,0.53454 -0.71973,0.345472 -0.95113,0.453559 -1.60362,1.202711 -0.29619,0.34008 -0.49982,0.751081 -0.73499,1.135896 -0.82748,1.354055 -0.77318,1.234567 -1.26953,2.80633 -0.10412,0.329713 -0.23043,0.658468 -0.26727,1.00226 -0.0454,0.424206 0.0761,1.372767 0.46772,1.670436 0.89828,0.682688 2.16739,0.535429 3.14042,0.200451 0.78176,-0.269129 1.5422,-0.641623 2.20497,-1.135896 0.90847,-0.6775 2.24913,-2.24845 2.6727,-3.407685 0.21741,-0.595019 0.28895,-1.239004 0.33409,-1.870887 0.0224,-0.31418 0.0301,-0.666388 -0.13364,-0.935443 -0.17371,-0.285377 -0.47603,-0.527317 -0.80181,-0.601358 -0.69533,-0.15803 -1.43626,-0.192529 -2.13815,-0.06681 -0.99312,0.177869 -1.86174,0.63019 -2.73952,1.069078"
       id="path897"
       inkscape:connector-curvature="0" />
    <path
       style="fill:none;stroke:#000000;stroke-width:0.26458332px;stroke-linecap:butt;stroke-linejoin:miter;stroke-opacity:1"
       d="m 183.28008,47.437076 c 0.0668,0.111364 0.14237,0.21793 0.20045,0.33409 0.0315,0.06299 0.0445,0.133633 0.0668,0.200451 0.0891,0.200451 0.16548,0.407043 0.26726,0.601355 0.14358,0.274095 0.32036,0.529741 0.46773,0.80181 0.14232,0.262747 0.24889,0.544549 0.4009,0.801809 0.13831,0.234061 0.31247,0.444995 0.46772,0.668173 0.20111,0.289089 0.41471,0.569997 0.60136,0.868627 0.39164,0.626618 1.07736,1.870311 1.40316,2.539058 0.21394,0.439135 0.42874,0.879396 0.60136,1.33635 0.41599,1.101137 0.68516,2.193742 0.93544,3.340867 0.14526,0.665745 0.30145,1.330415 0.40091,2.004523 0.11299,0.765847 0.3095,3.368117 0.33409,4.142677 0.0226,0.712361 0.0121,1.42554 0,2.138156 -0.025,1.475184 -0.0813,2.321099 -0.26728,3.808592 -0.0727,0.581372 -0.15624,1.161968 -0.26726,1.737252 -0.42243,2.188948 -0.38512,1.700331 -0.93545,3.608138 -0.18775,0.650881 -0.6743,2.59865 -1.00226,3.340868 -0.22558,0.510529 -0.53454,0.97999 -0.80181,1.469982 -1.18706,2.17628 -0.34431,0.765366 -1.60361,2.605879 -0.99875,1.459701 -0.84116,1.388512 -2.00452,2.739511 -0.31875,0.370153 -0.67219,0.708999 -1.00226,1.069078 -0.40496,0.441773 -0.80312,0.889733 -1.20272,1.33635 -0.35766,0.39974 -0.68979,0.823426 -1.06908,1.202711 -0.17956,0.179568 -0.4038,0.30816 -0.60135,0.467723 -0.38158,0.3082 -0.75992,0.620434 -1.1359,0.935442 -0.44813,0.37546 -0.89005,0.758261 -1.33634,1.135896 -0.88052,0.745053 -1.3763,1.226682 -2.33861,1.804069 -0.003,0.0019 -2.53434,1.333651 -2.53907,1.33635 -0.36486,0.208494 -0.70686,0.455104 -1.06907,0.668173 -0.91054,0.53561 -1.42999,0.812536 -2.40543,1.202711 -0.3728,0.149122 -0.74902,0.293442 -1.13589,0.400905 -0.89361,0.248224 -1.69251,0.319609 -2.60588,0.467722 -1.31969,0.214003 -1.01388,0.227045 -2.40543,0.334087 -1.29011,0.09924 -2.58296,0.06682 -3.87541,0.06682 -0.42317,0 -0.84704,0.02413 -1.26953,0 -0.35854,-0.02048 -0.71255,-0.09042 -1.06908,-0.133636 -0.37847,-0.04588 -0.75711,-0.09034 -1.13589,-0.133633 -1.14358,-0.130696 -1.19769,-0.07542 -2.27179,-0.400904 -1.16364,-0.352619 -1.21763,-0.441773 -2.33861,-1.002263 -0.4009,-0.200451 -0.81509,-0.376285 -1.20271,-0.601356 -0.30454,-0.176831 -0.56482,-0.423262 -0.86863,-0.601355 -1.04209,-0.610884 -1.04375,-0.379479 -1.9377,-1.135896 -0.31259,-0.264496 -0.57909,-0.579083 -0.86863,-0.868627 -0.15591,-0.155906 -0.31586,-0.30787 -0.46772,-0.46772 -2.6e-4,-2.65e-4 -1.49936,-1.622293 -1.5368,-1.670436 -0.70923,-0.911868 -0.81302,-1.34316 -1.40316,-2.405425 -1.17594,-2.116686 -0.0489,0.109011 -1.1359,-2.004521 -1.99068,-3.870767 0.42849,0.827643 -1.13589,-2.405427 -0.16492,-0.340829 -0.38892,-0.652754 -0.53455,-1.002261 -0.18962,-0.455096 -0.30429,-0.938016 -0.46771,-1.403164 -0.12617,-0.359074 -0.28739,-0.705811 -0.40091,-1.069078 -0.10956,-0.350605 -0.17603,-0.713261 -0.26727,-1.069078 -0.13149,-0.512821 -0.27828,-1.021787 -0.4009,-1.536801 -0.101,-0.424193 -0.45543,-2.200412 -0.53454,-2.605876 -0.42173,-2.161349 -0.13965,-0.62888 -0.40091,-2.405427 -0.0623,-0.42386 -0.14456,-0.844773 -0.20045,-1.269529 -0.0555,-0.421879 -0.0839,-0.846932 -0.13363,-1.269532 -0.37975,-3.227829 0.14136,1.610198 -0.26727,-2.271789 -0.0446,-0.423178 -0.1071,-0.844844 -0.13364,-1.269532 -0.0181,-0.288978 0,-0.579083 0,-0.868624 0,-0.244999 0,-0.489996 0,-0.734992 0,-1.492255 0,-2.98451 0,-4.476766 0,-0.712718 0,-1.425437 0,-2.138156 0,-0.222723 0.0193,-0.446286 0,-0.668173 -0.0254,-0.291846 -0.1093,-0.576689 -0.13363,-0.868627 -0.0204,-0.24415 0,-0.489993 0,-0.734989 0,-0.579085 0.0199,-1.158512 0,-1.737254 -0.009,-0.268036 -0.0401,-0.534943 -0.0668,-0.801807 -0.0401,-0.40137 -0.0971,-0.800999 -0.13364,-1.202713 -0.008,-0.08873 -0.0216,-0.18084 0,-0.267269 0.005,-0.02162 0.0554,-0.0191 0.0668,0 0.0617,0.102849 0.0772,0.228256 0.13364,0.334087 0.50437,0.945705 0.47046,0.564128 0.93544,1.804069 0.6607,1.761863 0.30985,1.092975 0.66817,2.605876 0.11706,0.49422 0.27773,0.977257 0.40091,1.469982 0.18658,0.746353 0.23467,1.314829 0.53454,2.004523 0.11127,0.255929 0.27141,0.487778 0.4009,0.734992 0.11555,0.220583 0.21316,0.450495 0.33409,0.668173 0.10204,0.183677 0.24012,0.346604 0.33409,0.534538 0.10727,0.214558 0.15999,0.453617 0.26727,0.668176 0.0718,0.143653 0.17817,0.267269 0.26726,0.400902 0.0446,0.06682 0.0891,0.133636 0.13364,0.200454 0.49256,0.738835 -0.14365,-0.143653 0.26727,0.267268 0.0352,0.03522 0.0223,0.111364 0.0668,0.133636 0.0282,0.01408 0.0592,-0.03626 0.0668,-0.06682 0.0915,-0.365963 0.0823,-0.845828 0.0668,-1.202713 -0.0353,-0.812774 -0.13144,-1.287032 -0.33409,-2.138157 -0.39453,-1.657053 -0.33634,-1.213635 -0.86862,-2.739511 -0.18559,-0.532014 -0.34095,-1.074465 -0.53454,-1.603619 -0.40241,-1.099915 -0.45322,-1.074732 -0.93544,-2.071338 -0.18227,-0.376682 -0.37271,-0.749993 -0.53454,-1.135896 -0.12805,-0.305342 -0.19708,-0.634016 -0.33409,-0.935442 -0.20043,-0.440949 -0.3057,-0.506148 -0.60136,-0.801809 -0.0445,-0.04455 -0.0812,-0.09869 -0.13363,-0.133633 -0.0491,-0.03276 -0.1978,0.06328 -0.20045,0.06681 -0.10774,0.143653 -0.18697,0.307112 -0.26727,0.467722 -0.14262,0.285226 -0.24972,0.587849 -0.40091,0.868627 -0.16118,0.299337 -0.38937,0.561203 -0.53454,0.868625 -0.16454,0.348456 -0.96891,2.52808 -1.13589,2.939965 -0.0607,0.149834 -0.63355,1.410364 -0.73499,1.737252 -0.10394,0.334907 -0.417,1.601168 -0.53454,2.071338 -0.11781,0.471225 -0.1139,0.513672 -0.26727,0.935445 -0.041,0.112718 -0.0915,0.221781 -0.13364,0.334087 -0.0247,0.06595 -0.0407,0.135056 -0.0668,0.20045 -0.0185,0.04624 -0.0571,0.0848 -0.0668,0.133636 -0.0131,0.06552 0,0.133636 0,0.200451"
       id="path899"
       inkscape:connector-curvature="0" />
    <path
       style="fill:none;stroke:#000000;stroke-width:0.26458332px;stroke-linecap:butt;stroke-linejoin:miter;stroke-opacity:1"
       d="m 50.313489,104.63276 c -0.08909,0.1559 -0.177104,0.31243 -0.267272,0.46772 -0.31074,0.53516 -0.617053,1.07297 -0.935442,1.60361 -0.416645,0.69441 -0.867751,1.36823 -1.269529,2.07134 -0.489466,0.85657 -0.898562,1.75815 -1.403167,2.60588 -0.568598,0.95525 -2.919691,4.52855 -3.674954,5.54584 -0.481084,0.64799 -1.048467,1.22835 -1.536801,1.87089 -0.821457,1.08086 -0.877337,1.24096 -1.403165,2.20497"
       id="path922"
       inkscape:connector-curvature="0" />
    <path
       style="fill:none;stroke:#000000;stroke-width:0.26458332px;stroke-linecap:butt;stroke-linejoin:miter;stroke-opacity:1"
       d="m 39.622708,127.21703 c 0.111361,-0.0445 0.214281,-0.12793 0.334087,-0.13363 1.189511,-0.0566 1.512626,0.18177 2.672694,0.8018 0.774832,0.41414 1.527969,0.86881 2.271792,1.33635 2.80027,1.76017 2.224235,1.4754 4.877667,3.67496 2.379674,1.97262 4.766387,3.94864 7.283096,5.74629 0.392078,0.28006 0.801809,0.53454 1.202714,0.80181"
       id="path924"
       inkscape:connector-curvature="0" />
    <path
       style="fill:none;stroke:#000000;stroke-width:0.26458332px;stroke-linecap:butt;stroke-linejoin:miter;stroke-opacity:1"
       d="m 46.638532,100.22281 c -0.09305,0.44848 -0.295955,0.87877 -0.334087,1.33635 -0.105462,1.26553 -0.0033,3.04731 0.334087,4.27631 0.123955,0.45155 0.225303,0.99052 0.601356,1.26953 1.189408,0.88246 2.634562,-0.22402 3.474505,-0.86863 0.364255,-0.27954 0.850977,-0.61025 0.868625,-1.06908 0.09055,-2.35438 -1.176203,-3.33198 -3.541321,-3.00678 -0.947505,0.13028 -1.692706,0.8909 -2.539061,1.33635"
       id="path926"
       inkscape:connector-curvature="0" />
    <path
       style="fill:none;stroke:#000000;stroke-width:0.26458332px;stroke-linecap:butt;stroke-linejoin:miter;stroke-opacity:1"
       d="m 34.611402,117.79578 c -0.104156,-0.16665 -0.296746,-0.76879 -0.400902,-0.93544 -0.02641,-0.0422 -0.087,-0.0843 -0.133636,-0.0668 -0.77393,0.29022 -0.814249,1.24568 -0.801809,2.00452 0.01302,0.79487 0.08999,1.63911 0.467723,2.33861 0.264567,0.48994 0.802301,0.84467 1.336347,1.00226 1.701855,0.50219 3.55501,0.41597 4.87767,-0.93544 1.145162,-1.17006 1.325629,-2.8038 0.06681,-4.00905 -0.597842,-0.5724 -1.451504,-0.89184 -2.271789,-1.00226 -0.434795,-0.0585 -0.801809,0.35636 -1.202714,0.53454"
       id="path928"
       inkscape:connector-curvature="0" />
    <path
       style="fill:none;stroke:#000000;stroke-width:0.26458332px;stroke-linecap:butt;stroke-linejoin:miter;stroke-opacity:1"
       d="m 38.01909,123.27481 c -0.289542,0.31181 -0.641403,0.57567 -0.868627,0.93544 -0.668176,1.05794 -1.055849,2.34881 -1.00226,3.60814 0.03288,0.77274 0.903091,2.11969 1.603618,2.33861 0.64094,0.20029 1.383363,0.0547 2.00452,-0.20046 0.293511,-0.12055 2.596539,-1.57103 2.204974,-2.60587 -0.218006,-0.57617 -0.825899,-0.98766 -1.403164,-1.20272 -0.626483,-0.23339 -1.336347,-0.0445 -2.004523,-0.0668"
       id="path930"
       inkscape:connector-curvature="0" />
    <path
       style="fill:none;stroke:#000000;stroke-width:0.26458332px;stroke-linecap:butt;stroke-linejoin:miter;stroke-opacity:1"
       d="m 54.188896,133.16378 c -0.541215,0.86594 -0.596537,0.91051 -1.135896,2.20497 -0.378944,0.90947 -1.158885,2.5671 -1.00226,3.74178 0.07447,0.55851 0.08378,1.26554 0.534538,1.60361 1.411256,1.05844 5.124942,0.96586 6.481286,0.73499 0.87662,-0.14921 1.899052,-0.32242 2.472243,-1.00226 2.039967,-2.41949 -1.156607,-3.98646 -2.939963,-4.34313 -1.213839,-0.24276 -2.449972,0.35636 -3.674956,0.53454"
       id="path932"
       inkscape:connector-curvature="0" />
    <path
       style="fill:none;stroke:#000000;stroke-width:0.26458332px;stroke-linecap:butt;stroke-linejoin:miter;stroke-opacity:1"
       d="m 27.127856,112.31676 c 0.104777,-0.73343 -0.0068,-0.25618 0.334087,-1.06908 0.845298,-2.01571 0.438708,-1.38963 1.937705,-3.60814 0.643596,-0.95252 1.309494,-1.89066 2.00452,-2.80633 0.533728,-0.70317 3.571266,-4.49182 4.34313,-5.14494 0.647435,-0.54783 1.429962,-0.925081 2.204974,-1.269531 2.26218,-1.005412 4.51826,-1.609519 7.015827,-1.670434 1.473755,-0.03595 2.952292,0.113866 4.409945,0.334087 1.645809,0.248647 3.305892,0.521337 4.87767,1.069078 1.392087,0.485121 2.692109,1.2232 3.942226,2.00452 2.913136,1.82071 6.064832,4.50734 8.15172,7.21628 1.951863,2.53367 4.176492,7.16801 5.011303,10.22306 1.071864,3.92257 1.185484,7.61017 1.069078,11.62622 -0.03564,1.22952 -0.0836,2.4707 -0.334087,3.67496 -0.651208,3.13081 -1.809236,6.0907 -3.474503,8.81989 -0.805158,1.31957 -1.742664,2.56033 -2.739514,3.74178 -1.766133,2.09319 -3.368633,3.47125 -5.879928,4.61039 -1.610675,0.73062 -4.657307,1.48028 -6.481286,1.20272 -1.038632,-0.15806 -2.040051,-0.59378 -2.939965,-1.1359 -2.248773,-1.35468 -3.557233,-3.3468 -5.078122,-5.41221 -1.260268,-1.71147 -4.10007,-5.77154 -5.34539,-7.68399 -0.468974,-0.72021 -0.878163,-1.47786 -1.336347,-2.20498 -0.566475,-0.89897 -1.158719,-1.78144 -1.737251,-2.67269 -0.144918,-0.22325 -0.600073,-1.10152 -1.002263,-1.40317 -0.01781,-0.0134 0.0037,0.0448 0,0.0668 -0.04094,0.24563 -0.11707,0.48653 -0.133633,0.73499 -0.02815,0.42224 0.0088,0.84645 0,1.26953 -0.09368,4.49674 -0.06682,-0.85553 -0.06682,4.27631 0,0.60136 0,1.20272 0,1.80407 0,0.15591 0.06972,0.32828 0,0.46772 -0.03592,0.0718 -0.105439,-0.12526 -0.133636,-0.20045 -0.173111,-0.46163 -0.353526,-0.92355 -0.46772,-1.40316 -0.109434,-0.45963 -0.136207,-0.93509 -0.200453,-1.40317 -0.255564,-1.86196 -0.361905,-2.39315 -0.400905,-4.34313 -0.0067,-0.33476 -0.0294,-0.68155 0.06682,-1.00226 0.04525,-0.15085 0.176673,-0.339 0.334087,-0.33409 2.125461,0.0664 2.338678,0.90055 4.142679,2.20498 0.650748,0.47054 1.341022,0.88396 2.00452,1.33634 0.316603,0.21587 0.623628,0.44545 0.935442,0.66818"
       id="path934"
       inkscape:connector-curvature="0" />
    <path
       style="fill:none;stroke:#000000;stroke-width:0.26458332px;stroke-linecap:butt;stroke-linejoin:miter;stroke-opacity:1"
       d="m 104.30869,144.97146 c 0.17818,-0.0223 0.35763,-0.036 0.53454,-0.0668 0.33566,-0.0584 0.66498,-0.15227 1.00226,-0.20045 0.62013,-0.0886 1.28098,0.28023 1.5368,0.86862 0.29975,0.68942 -0.0702,1.29966 -0.40091,1.87089 -0.0631,0.10904 -0.14127,0.26727 -0.26726,0.26727 -0.0918,0 0.005,-0.19932 0.0668,-0.26727 0.17082,-0.18791 0.34765,-0.45669 0.60135,-0.46772 0.33893,-0.0147 0.78671,0.096 0.93545,0.4009 0.84974,1.74198 0.20045,2.58072 0.20045,4.27631"
       id="path958"
       inkscape:connector-curvature="0" />
    <g
       id="g1015"
       transform="translate(28.045832)">
      <path
         inkscape:connector-curvature="0"
         id="path940"
         d="m 86.728959,112.31676 c -0.09221,0.36883 -0.170704,0.65263 -0.200451,1.06908 -0.03971,0.55586 -0.08297,1.51796 0.334087,2.00452 0.634267,0.73997 1.703208,0.48089 2.472243,0.26726 0.29813,-0.0828 0.627084,-0.21235 0.801809,-0.46772 0.517493,-0.75633 -0.679884,-2.05163 -1.00226,-2.27179 -0.472874,-0.32293 -1.114909,-0.26202 -1.670436,-0.4009 -0.246362,-0.0616 -0.489993,-0.13363 -0.734992,-0.20045 z"
         style="fill:none;stroke:#000000;stroke-width:0.26458332px;stroke-linecap:butt;stroke-linejoin:miter;stroke-opacity:1" />
      <path
         inkscape:connector-curvature="0"
         id="path942"
         d="m 96.751568,145.05727 c 0.08909,0.0668 0.197702,0.1135 0.267272,0.20045 0.444359,0.55545 0.356989,1.0511 0.467719,1.80407 0.04583,0.31163 0.10635,0.62165 0.133636,0.93545 0.01736,0.1997 0,0.4009 0,0.60135 0,0.15591 0,0.31182 0,0.46773"
         style="fill:none;stroke:#000000;stroke-width:0.26458332px;stroke-linecap:butt;stroke-linejoin:miter;stroke-opacity:1" />
      <g
         style="stroke-width:0.1890084;stroke-miterlimit:4;stroke-dasharray:none"
         transform="matrix(1.9657556,0,0,1,-78.532105,0)"
         id="g954">
        <path
           style="fill:none;stroke:#000000;stroke-width:0.1890084;stroke-linecap:butt;stroke-linejoin:miter;stroke-miterlimit:4;stroke-dasharray:none;stroke-opacity:1"
           d="m 86.394874,114.58855 c 0.02228,0.1559 0.05317,0.31082 0.06682,0.46772 0.660868,7.59998 -0.10813,1.08758 1.5368,11.69304 0.455747,2.93838 0.951185,5.87143 1.336347,8.81989 0.757229,3.00776 0.446214,6.11169 0.801809,9.15398 0.07911,0.6768 0.267269,1.33635 0.400905,2.00453"
           id="path938"
           inkscape:connector-curvature="0" />
        <path
           style="fill:none;stroke:#000000;stroke-width:0.1890084;stroke-linecap:butt;stroke-linejoin:miter;stroke-miterlimit:4;stroke-dasharray:none;stroke-opacity:1"
           d="m 92.742524,116.59307 c -0.02228,0.11136 -0.02543,0.22833 -0.06682,0.33408 -0.159869,0.40856 -0.35636,0.80181 -0.534541,1.20272 -0.289541,0.69044 -0.6005,1.37229 -0.868627,2.07134 -0.355724,0.92743 -0.668173,1.87088 -1.00226,2.80633 -0.334086,1.0468 -0.609269,2.11427 -1.00226,3.14041 -0.410059,1.07071 -0.911024,2.10487 -1.403165,3.14042 -0.577186,1.2145 -1.187971,2.41291 -1.804069,3.60814 -0.497631,0.9654 -1.100968,1.87831 -1.536801,2.87315 -0.591018,1.34906 -1.127262,2.72791 -1.536797,4.14267 -1.306627,4.5138 -0.07249,2.13811 -1.202714,5.67948 -0.105995,0.33212 -0.311814,0.62363 -0.467723,0.93544"
           id="path944"
           inkscape:connector-curvature="0" />
      </g>
      <path
         inkscape:connector-curvature="0"
         id="path956"
         d="m 101.67756,111.64858 c 0.95399,-0.16481 1.89677,-0.33919 2.87315,-0.13363 0.36076,0.076 0.81533,0.14995 1.00226,0.46772 0.62617,1.0645 0.30965,2.36515 -0.0668,3.40769 -0.10509,0.29102 -0.3004,0.54153 -0.46772,0.8018 -0.0341,0.053 -0.19649,0.13783 -0.13364,0.13364 0.38363,-0.0256 0.75727,-0.13364 1.1359,-0.20045 0.71272,-0.0668 1.4235,-0.15923 2.13815,-0.20046 1.24276,-0.0717 0.95396,-0.19119 1.46999,0.0668"
         style="fill:none;stroke:#000000;stroke-width:0.26458332px;stroke-linecap:butt;stroke-linejoin:miter;stroke-opacity:1" />
      <path
         inkscape:connector-curvature="0"
         id="path962"
         d="M 99.442599,146.72771 166.24164,120.13439"
         style="fill:none;stroke:#000000;stroke-width:0.26458332px;stroke-linecap:butt;stroke-linejoin:miter;stroke-opacity:1" />
      <path
         inkscape:connector-curvature="0"
         id="path964"
         d="m 103.77703,116.59307 37.00719,30.86963"
         style="fill:none;stroke:#000000;stroke-width:0.26458332px;stroke-linecap:butt;stroke-linejoin:miter;stroke-opacity:1" />
      <path
         inkscape:connector-curvature="0"
         id="path966"
         d="M 127.22029,136.03692 52.652096,125.61341"
         style="fill:none;stroke:#000000;stroke-width:0.26458332px;stroke-linecap:butt;stroke-linejoin:miter;stroke-opacity:1" />
      <text
         id="text970"
         y="107.90681"
         x="79.913589"
         style="font-style:normal;font-weight:normal;font-size:2.82222223px;line-height:1.25;font-family:sans-serif;letter-spacing:0px;word-spacing:0px;fill:#000000;fill-opacity:1;stroke:none;stroke-width:0.26458332"
         xml:space="preserve"><tspan
           style="font-size:2.82222223px;stroke-width:0.26458332"
           y="107.90681"
           x="79.913589"
           id="tspan968"
           sodipodi:role="line">Nos. below are the original verts indices in draw_coreRender</tspan></text>
      <circle
         r="0.94494045"
         cy="115.09895"
         cx="91.422989"
         id="path977"
         style="opacity:1;fill:none;fill-opacity:0.58098593;stroke:#00ff00;stroke-width:0.40000001;stroke-miterlimit:4;stroke-dasharray:none" />
      <circle
         style="opacity:1;fill:none;fill-opacity:0.58098593;stroke:#00ff00;stroke-width:0.40000001;stroke-miterlimit:4;stroke-dasharray:none"
         id="circle979"
         cx="99.31324"
         cy="146.61272"
         r="0.94494045" />
      <circle
         style="opacity:1;fill:none;fill-opacity:0.58098593;stroke:#00ff00;stroke-width:0.40000001;stroke-miterlimit:4;stroke-dasharray:none"
         id="circle981"
         cx="126.87712"
         cy="135.73633"
         r="0.94494045" />
      <circle
         r="0.94494045"
         cy="125.68227"
         cx="52.793747"
         id="circle983"
         style="opacity:1;fill:none;fill-opacity:0.58098593;stroke:#00ff00;stroke-width:0.40000001;stroke-miterlimit:4;stroke-dasharray:none" />
      <path
         inkscape:connector-curvature="0"
         id="path985"
         d="m 126.29129,130.78497 c 1.23742,-0.41247 -0.70311,0.28069 1.08668,-0.61421 0.42589,-0.21294 1.11332,-0.42919 1.6064,-0.23624 0.48629,0.19029 0.52471,1.3025 0.51972,1.51191 -0.003,0.11493 -0.35536,1.0354 -0.28348,1.32291 0.0171,0.0683 0.11937,0.10521 0.18899,0.0945 0.71092,-0.10937 1.19742,-0.34854 1.84263,-0.61421"
         style="fill:none;stroke:#00ff00;stroke-width:0.26458332px;stroke-linecap:butt;stroke-linejoin:miter;stroke-opacity:1" />
      <circle
         style="opacity:1;fill:none;fill-opacity:0.58098593;stroke:#ff0000;stroke-width:0.40000001;stroke-miterlimit:4;stroke-dasharray:none"
         id="circle989"
         cx="92.481285"
         cy="130.97389"
         r="0.94494045" />
      <circle
         r="0.94494045"
         cy="129.91557"
         cx="95.656288"
         id="circle991"
         style="opacity:1;fill:none;fill-opacity:0.58098593;stroke:#ff0000;stroke-width:0.40000001;stroke-miterlimit:4;stroke-dasharray:none" />
      <path
         style="fill:none;stroke:#00ff00;stroke-width:0.26458332px;stroke-linecap:butt;stroke-linejoin:miter;stroke-opacity:1"
         d="m 49.656621,119.11495 c 0.153681,-0.0422 0.317521,0.0282 0.472472,0 0.112805,-0.0205 0.220257,-0.0638 0.330729,-0.0945 0.699331,-0.19426 1.380911,-0.4184 2.126115,-0.33073 0.203335,0.0239 0.468926,0.0565 0.566965,0.23624 0.128204,0.23504 0.06132,0.54258 0,0.80319 -0.09843,0.41832 -0.382768,0.92282 -0.755954,1.18118 -0.06603,0.0457 -0.164407,0.0832 -0.236234,0.0472 -0.04454,-0.0223 -7.93e-4,-0.12864 0.04725,-0.14174 0.15194,-0.0414 0.361109,-0.11137 0.472469,0 0.294217,0.29421 0.560724,0.67405 0.614212,1.08668 0.140107,1.08083 -0.0916,1.24079 -0.566965,1.79538"
         id="path993"
         inkscape:connector-curvature="0" />
    </g>
    <path
       inkscape:connector-curvature="0"
       id="path1038"
       d="m 75.376524,320.20811 c 0.993344,-0.1419 -0.08601,0.0287 1.00226,-0.20045 0.243674,-0.0513 0.488069,-0.10143 0.734992,-0.13363 0.265943,-0.0347 0.534466,-0.0454 0.801809,-0.0668 0.289472,-0.0231 0.578379,-0.0575 0.868624,-0.0668 0.859565,-0.0277 1.555377,-0.0164 2.405428,0.13363 0.361735,0.0638 0.713846,0.17379 1.069078,0.26727 1.238819,0.32601 1.773261,0.43187 2.939965,1.00226 0.528638,0.25845 1.028523,0.57214 1.536798,0.86863 0.382775,0.22328 2.719774,1.61765 3.140416,1.9377 0.565261,0.43009 1.072751,0.93129 1.603619,1.40317 0.375719,0.33397 1.586881,1.39625 2.071338,1.9377 0.547685,0.61212 1.054841,1.25975 1.603618,1.87089 0.431544,0.48058 0.922851,0.90697 1.336347,1.40316 0.179099,0.21492 1.983158,2.66307 2.271792,3.14042 0.368938,0.61017 1.197872,2.31851 1.469982,3.00678 0.44256,1.11941 0.646,2.08997 0.93544,3.27406 0.0924,0.37784 0.20957,0.75122 0.26727,1.13589 0.12577,0.83843 0.17765,2.08169 0.13364,2.93996 -0.0207,0.40285 -0.0963,0.80108 -0.13364,1.20272 -0.0517,0.55619 -0.0676,1.11576 -0.13363,1.67043 -0.10633,0.89318 -0.37931,1.88833 -0.60136,2.73952 -0.1282,0.49144 -0.2264,0.99301 -0.4009,1.46998 -0.21025,0.57467 -1.172587,2.35615 -1.403169,2.80633 -1.050615,2.0512 -0.09664,0.38679 -1.469982,2.47224 -0.319432,0.48506 -0.568307,1.01995 -0.935443,1.46998 -0.328678,0.4029 -0.746014,0.72507 -1.135896,1.06908 -1.644083,1.45066 -0.569772,0.44768 -1.870887,1.46999 -0.697457,0.548 -1.355508,1.14665 -2.071338,1.67043 -0.200962,0.14704 -0.441479,0.23104 -0.668174,0.33409 -2.489165,1.13143 -0.57723,0.23815 -3.207234,1.26953 -2.644013,1.03686 -0.812911,0.42293 -3.34087,1.40316 -0.551764,0.21395 -1.097682,0.45244 -1.670433,0.60136 -0.308981,0.0803 -2.733942,0.42354 -3.140417,0.46772 -2.489454,0.27059 -5.032271,0.21745 -7.483546,-0.33409 -2.061181,-0.46376 -3.468841,-1.06115 -5.412208,-1.87088 -0.4509,-0.18788 -0.908341,-0.36596 -1.33635,-0.60136 -0.99828,-0.54906 -1.690068,-1.12178 -2.539058,-1.87089 -0.366276,-0.32318 -0.702156,-0.67981 -1.069078,-1.00226 -0.368448,-0.32378 -0.784071,-0.59367 -1.135896,-0.93544 -0.994386,-0.96597 -0.995047,-1.10022 -1.670436,-1.9377 -0.39743,-0.49282 -0.830339,-0.95797 -1.202711,-1.46999 -0.164145,-0.22569 -0.266719,-0.49029 -0.400905,-0.73499 -0.244446,-0.44575 -0.482766,-0.89495 -0.734991,-1.33634 -0.193299,-0.33828 -0.444095,-0.6458 -0.601356,-1.00226 -0.179128,-0.40602 -0.260572,-0.84853 -0.400904,-1.26953 -0.126974,-0.38092 -0.278035,-0.75364 -0.400905,-1.1359 -0.07771,-0.24176 -0.135826,-0.48941 -0.200453,-0.73499 -0.09119,-0.34652 -0.218237,-0.85948 -0.267269,-1.20271 -0.03479,-0.24354 -0.04349,-0.49009 -0.06682,-0.735 -0.02122,-0.22282 -0.0544,-0.44468 -0.06682,-0.66817 -0.0099,-0.17791 0,-0.35636 0,-0.53454 0,-0.35636 0,-0.71272 0,-1.06907 0,-0.17819 0,-0.35637 0,-0.53455 0,-0.0223 0.01574,-0.0511 0,-0.0668 -0.01574,-0.0157 -0.04454,0 -0.06682,0 -0.177417,0 -0.138152,-0.0157 -0.334087,0.26727 -0.130527,0.18854 -0.206891,0.41057 -0.334089,0.60136 -0.695921,1.04388 -2.065105,2.96429 -2.873145,4.14268 -0.178181,0.26727 -0.356362,0.53454 -0.53454,0.80181 -0.08909,0.15591 -0.167664,0.31831 -0.267269,0.46772 -0.03494,0.0524 -0.08909,0.0891 -0.133636,0.13363 -0.02228,0.0223 -0.04454,0.0891 -0.06682,0.0668 -0.02228,-0.0223 0.05403,-0.038 0.06682,-0.0668 0.07729,-0.17389 0.137589,-0.35492 0.200454,-0.53453 0.09307,-0.26592 0.157496,-0.54235 0.267268,-0.80181 0.135835,-0.32107 0.311815,-0.62363 0.467723,-0.93545 0.178178,-0.35636 0.351494,-0.71519 0.534538,-1.06907 0.246824,-0.4772 0.568322,-1.12073 0.935442,-1.5368 0.405273,-0.45931 0.557686,-0.4793 1.069078,-0.735 0.178181,-0.0891 0.345551,-0.20427 0.53454,-0.26726 0.673828,-0.22461 1.529059,-0.19715 2.204974,0 0.29781,0.0869 0.610508,0.162 0.868625,0.33408 0.492956,0.32864 1.323977,1.3043 1.737254,1.73725 0.195736,0.20506 0.407067,0.39493 0.601355,0.60136 0.396817,0.42162 0.722697,0.87451 1.069079,1.33635 0.06682,0.0891 0.129159,0.18172 0.200451,0.26727 0.149383,0.17926 0.133635,0.0601 0.133635,0.20045"
       style="fill:none;stroke:#000000;stroke-width:0.26458332px;stroke-linecap:butt;stroke-linejoin:miter;stroke-opacity:1" />
    <text
       xml:space="preserve"
       style="font-style:normal;font-weight:normal;font-size:7.05555534px;line-height:1.25;font-family:sans-serif;letter-spacing:0px;word-spacing:0px;fill:#000000;fill-opacity:1;stroke:none;stroke-width:0.26458332"
       x="-20.221722"
       y="186.06398"
       id="text1073"><tspan
         sodipodi:role="line"
         id="tspan1071"
         x="-20.221722"
         y="186.06398"
         style="font-size:7.05555534px;stroke-width:0.26458332">(8) on_x==false</tspan></text>
    <g
       id="g1086">
      <path
         inkscape:connector-curvature="0"
         id="path1077"
         d="m 308.23958,165.95625 h 47.625"
         style="fill:none;stroke:#000000;stroke-width:0.15000001;stroke-linecap:butt;stroke-linejoin:miter;stroke-miterlimit:4;stroke-dasharray:none;stroke-opacity:1" />
      <path
         style="fill:none;stroke:#000000;stroke-width:0.15;stroke-linecap:butt;stroke-linejoin:miter;stroke-opacity:1;stroke-miterlimit:4;stroke-dasharray:none"
         d="m 332.05208,118.40625 v 47.625"
         id="path1079"
         inkscape:connector-curvature="0" />
      <path
         style="fill:none;stroke:#000000;stroke-width:0.15000001;stroke-linecap:butt;stroke-linejoin:miter;stroke-miterlimit:4;stroke-dasharray:none;stroke-opacity:1"
         d="m 328.08333,94.85151 7.9375,46.95888"
         id="path1081"
         inkscape:connector-curvature="0" />
    </g>
    <g
       id="g1115"
       transform="translate(-213.69907,-16.451828)">
      <g
         id="g1094"
         transform="matrix(3.182798,-0.08464778,2.8658933,1.2942254,-743.58531,-148.24268)">
        <path
           style="fill:none;stroke:#000000;stroke-width:0.26458332px;stroke-linecap:butt;stroke-linejoin:miter;stroke-opacity:1"
           d="m 51.716654,285.67702 c 0.08909,0.11136 0.166425,0.23324 0.267268,0.33408 0.123005,0.123 0.268111,0.22173 0.400905,0.33409 1.415166,1.19745 -0.756772,-0.60415 1.202714,0.93544 0.29219,0.22958 2.194002,1.81232 2.405425,2.00452 0.326292,0.29663 0.594148,0.6562 0.935442,0.93545 2.089669,1.70973 0.52079,-0.0719 2.672697,2.13815 0.385947,0.39638 0.666866,0.88967 1.069078,1.26953 3.765764,3.55656 -1.362673,-1.99519 2.806329,2.40543 0.337339,0.35608 0.588608,0.78906 0.935442,1.13589 0.30253,0.30253 0.667049,0.53596 1.002263,0.80181 0.441127,0.34986 1.272138,0.96062 1.670434,1.40317 0.256341,0.28482 0.425524,0.63887 0.668173,0.93544 0.163629,0.19999 0.451602,0.54549 0.668174,0.73499 0.08381,0.0733 0.181718,0.12916 0.267269,0.20045 0.09679,0.0807 0.178181,0.17818 0.267271,0.26728"
           id="path1088"
           inkscape:connector-curvature="0" />
        <path
           style="fill:none;stroke:#000000;stroke-width:0.26458332px;stroke-linecap:butt;stroke-linejoin:miter;stroke-opacity:1"
           d="m 50.246671,289.35197 c -0.36486,0 -0.284964,0.0126 -0.734991,-0.0668 -0.223679,-0.0395 -0.455044,-0.0551 -0.668174,-0.13363 -0.215172,-0.0793 -0.403706,-0.21783 -0.601358,-0.33409 -0.181107,-0.10654 -0.380563,-0.19111 -0.534538,-0.33409 -0.338801,-0.3146 -0.621818,-0.91599 -0.734991,-1.33634 -0.199327,-0.74036 -0.136057,-1.24291 -0.06682,-2.00453 0.01228,-0.13492 0.02093,-0.27343 0.06682,-0.4009 0.347779,-0.96605 0.67278,-1.63137 1.269529,-2.47224 0.473644,-0.66741 0.811808,-1.08093 1.603618,-1.33635 0.813472,-0.26241 1.931943,-0.26422 2.739512,-0.0668 0.514271,0.12571 1.050684,0.27815 1.469983,0.60136 0.674026,0.51956 1.276249,1.15553 1.737251,1.87088 0.208275,0.32319 0.210569,0.75155 0.200454,1.1359 -0.03152,1.19761 -0.306583,1.65743 -1.069078,2.53906 -1.030383,1.19138 -1.498674,1.51272 -2.80633,2.33861 -0.581644,0.36735 -1.235069,0.76453 -1.937705,0.86862 -0.702694,0.10411 -0.87821,0.0143 -1.469983,-0.13363"
           id="path1090"
           inkscape:connector-curvature="0" />
        <path
           style="fill:none;stroke:#000000;stroke-width:0.26458332px;stroke-linecap:butt;stroke-linejoin:miter;stroke-opacity:1"
           d="m 63.743781,299.57503 c 0.06682,-0.0891 0.121708,-0.18852 0.200454,-0.26727 0.05678,-0.0568 0.133633,-0.0891 0.200451,-0.13363 0.317568,-0.21172 0.521673,-0.36107 0.868627,-0.53454 0.501711,-0.25086 0.722127,-0.32175 1.269529,-0.46772 0.109733,-0.0293 0.220771,-0.0593 0.334086,-0.0668 0.825432,-0.055 1.78412,0.11967 2.472243,0.60135 0.854557,0.59819 1.668296,1.80432 1.737252,2.87315 0.05301,0.82164 -0.07528,1.60605 -0.46772,2.33861 -0.149482,0.27903 -0.394454,0.49542 -0.601358,0.73499 -0.216416,0.25059 -0.418992,0.51696 -0.668174,0.73499 -0.935918,0.81893 -2.295848,1.441 -3.541321,1.5368 -0.44469,0.0342 -0.89772,0.014 -1.336347,-0.0668 -0.751914,-0.13851 -1.646462,-0.50372 -2.138156,-1.13589 -0.238805,-0.30704 -0.347988,-0.699 -0.467722,-1.06908 -0.126415,-0.39075 -0.241652,-0.79283 -0.267269,-1.20272 -0.03327,-0.53239 0.265456,-1.51033 0.534538,-1.9377 0.282689,-0.44897 1.191641,-1.26251 1.670436,-1.46998 0.332677,-0.14416 0.711134,-0.14272 1.069078,-0.20046 0.883285,-0.14246 0.701932,-0.13363 1.202711,-0.13363"
           id="path1092"
           inkscape:connector-curvature="0" />
      </g>
      <g
         transform="matrix(1.7643737,-2.6503498,2.7088859,-1.5969663,-585.31576,886.14621)"
         id="g1102">
        <path
           inkscape:connector-curvature="0"
           id="path1096"
           d="m 51.716654,285.67702 c 0.08909,0.11136 0.166425,0.23324 0.267268,0.33408 0.123005,0.123 0.268111,0.22173 0.400905,0.33409 1.415166,1.19745 -0.756772,-0.60415 1.202714,0.93544 0.29219,0.22958 2.194002,1.81232 2.405425,2.00452 0.326292,0.29663 0.594148,0.6562 0.935442,0.93545 2.089669,1.70973 0.52079,-0.0719 2.672697,2.13815 0.385947,0.39638 0.666866,0.88967 1.069078,1.26953 3.765764,3.55656 -1.362673,-1.99519 2.806329,2.40543 0.337339,0.35608 0.588608,0.78906 0.935442,1.13589 0.30253,0.30253 0.667049,0.53596 1.002263,0.80181 0.441127,0.34986 1.272138,0.96062 1.670434,1.40317 0.256341,0.28482 0.425524,0.63887 0.668173,0.93544 0.163629,0.19999 0.451602,0.54549 0.668174,0.73499 0.08381,0.0733 0.181718,0.12916 0.267269,0.20045 0.09679,0.0807 0.178181,0.17818 0.267271,0.26728"
           style="fill:none;stroke:#000000;stroke-width:0.26458332px;stroke-linecap:butt;stroke-linejoin:miter;stroke-opacity:1" />
        <path
           inkscape:connector-curvature="0"
           id="path1098"
           d="m 50.246671,289.35197 c -0.36486,0 -0.284964,0.0126 -0.734991,-0.0668 -0.223679,-0.0395 -0.455044,-0.0551 -0.668174,-0.13363 -0.215172,-0.0793 -0.403706,-0.21783 -0.601358,-0.33409 -0.181107,-0.10654 -0.380563,-0.19111 -0.534538,-0.33409 -0.338801,-0.3146 -0.621818,-0.91599 -0.734991,-1.33634 -0.199327,-0.74036 -0.136057,-1.24291 -0.06682,-2.00453 0.01228,-0.13492 0.02093,-0.27343 0.06682,-0.4009 0.347779,-0.96605 0.67278,-1.63137 1.269529,-2.47224 0.473644,-0.66741 0.811808,-1.08093 1.603618,-1.33635 0.813472,-0.26241 1.931943,-0.26422 2.739512,-0.0668 0.514271,0.12571 1.050684,0.27815 1.469983,0.60136 0.674026,0.51956 1.276249,1.15553 1.737251,1.87088 0.208275,0.32319 0.210569,0.75155 0.200454,1.1359 -0.03152,1.19761 -0.306583,1.65743 -1.069078,2.53906 -1.030383,1.19138 -1.498674,1.51272 -2.80633,2.33861 -0.581644,0.36735 -1.235069,0.76453 -1.937705,0.86862 -0.702694,0.10411 -0.87821,0.0143 -1.469983,-0.13363"
           style="fill:none;stroke:#000000;stroke-width:0.26458332px;stroke-linecap:butt;stroke-linejoin:miter;stroke-opacity:1" />
        <path
           inkscape:connector-curvature="0"
           id="path1100"
           d="m 63.743781,299.57503 c 0.06682,-0.0891 0.121708,-0.18852 0.200454,-0.26727 0.05678,-0.0568 0.133633,-0.0891 0.200451,-0.13363 0.317568,-0.21172 0.521673,-0.36107 0.868627,-0.53454 0.501711,-0.25086 0.722127,-0.32175 1.269529,-0.46772 0.109733,-0.0293 0.220771,-0.0593 0.334086,-0.0668 0.825432,-0.055 1.78412,0.11967 2.472243,0.60135 0.854557,0.59819 1.668296,1.80432 1.737252,2.87315 0.05301,0.82164 -0.07528,1.60605 -0.46772,2.33861 -0.149482,0.27903 -0.394454,0.49542 -0.601358,0.73499 -0.216416,0.25059 -0.418992,0.51696 -0.668174,0.73499 -0.935918,0.81893 -2.295848,1.441 -3.541321,1.5368 -0.44469,0.0342 -0.89772,0.014 -1.336347,-0.0668 -0.751914,-0.13851 -1.646462,-0.50372 -2.138156,-1.13589 -0.238805,-0.30704 -0.347988,-0.699 -0.467722,-1.06908 -0.126415,-0.39075 -0.241652,-0.79283 -0.267269,-1.20272 -0.03327,-0.53239 0.265456,-1.51033 0.534538,-1.9377 0.282689,-0.44897 1.191641,-1.26251 1.670436,-1.46998 0.332677,-0.14416 0.711134,-0.14272 1.069078,-0.20046 0.883285,-0.14246 0.701932,-0.13363 1.202711,-0.13363"
           style="fill:none;stroke:#000000;stroke-width:0.26458332px;stroke-linecap:butt;stroke-linejoin:miter;stroke-opacity:1" />
      </g>
      <path
         inkscape:connector-curvature="0"
         id="path1104"
         d="M 313.53125,259.95833 279.13541,224.23958"
         style="fill:none;stroke:#000000;stroke-width:0.26458332px;stroke-linecap:butt;stroke-linejoin:miter;stroke-opacity:1" />
    </g>
    <path
       style="fill:none;stroke:#000000;stroke-width:0.26458332px;stroke-linecap:butt;stroke-linejoin:miter;stroke-opacity:1"
       d="M 227.58,44.964834 265.35748,-0.51036409 264.8546,43.466839 229.22109,2.9338218 Z"
       id="path4545"
       inkscape:connector-curvature="0"
       sodipodi:nodetypes="ccccc" />
    <path
       style="fill:none;stroke:#000000;stroke-width:0.26458332px;stroke-linecap:butt;stroke-linejoin:miter;stroke-opacity:1"
       d="M 245.54278,46.212796 248.09412,0.52492497"
       id="path4547"
       inkscape:connector-curvature="0" />
    <path
       sodipodi:nodetypes="cc"
       inkscape:connector-curvature="0"
       id="path4517"
       d="M 559.40561,17.046017 580.2848,34.577803"
       style="fill:none;stroke:#000000;stroke-width:0.26458332px;stroke-linecap:butt;stroke-linejoin:miter;stroke-opacity:1" />
    <path
       style="fill:none;stroke:#000000;stroke-width:0.26458332px;stroke-linecap:butt;stroke-linejoin:miter;stroke-opacity:1"
       d="M 571.39773,27.125001 529.0644,82.6875 l -79.375,2.645834 -47.625,-58.208333"
       id="path4505"
       inkscape:connector-curvature="0" />
    <path
       style="fill:none;stroke:#000000;stroke-width:0.26458332px;stroke-linecap:butt;stroke-linejoin:miter;stroke-opacity:1"
       d="M 412.06186,18.355952 391.46217,36.215328"
       id="path4513"
       inkscape:connector-curvature="0" />
    <path
       inkscape:connector-curvature="0"
       id="path4554"
       d="m 528.53523,68.929161 -79.375,2.645834"
       style="fill:none;stroke:#00ffff;stroke-width:0.26458332px;stroke-linecap:butt;stroke-linejoin:miter;stroke-opacity:1"
       sodipodi:nodetypes="cc" />
    <path
       inkscape:connector-curvature="0"
       id="path4556"
       d="M 560.81436,18.129166 518.48103,73.691665"
       style="fill:none;stroke:#00ffff;stroke-width:0.26458332px;stroke-linecap:butt;stroke-linejoin:miter;stroke-opacity:1"
       sodipodi:nodetypes="cc" />
    <text
       xml:space="preserve"
       style="font-style:normal;font-weight:normal;font-size:4.23333311px;line-height:1.25;font-family:sans-serif;letter-spacing:0px;word-spacing:0px;fill:#000000;fill-opacity:1;stroke:none;stroke-width:0.26458332"
       x="550.0683"
       y="28.447914"
       id="text4560"><tspan
         sodipodi:role="line"
         id="tspan4558"
         x="550.0683"
         y="28.447914"
         style="stroke-width:0.26458332">grad.mid</tspan></text>
    <text
       xml:space="preserve"
       style="font-style:normal;font-weight:normal;font-size:4.23333311px;line-height:1.25;font-family:sans-serif;letter-spacing:0px;word-spacing:0px;fill:#000000;fill-opacity:1;stroke:none;stroke-width:0.26458332"
       x="469.72592"
       y="196.02538"
       id="text4564"
       transform="rotate(-12.117042)"><tspan
         sodipodi:role="line"
         id="tspan4562"
         x="469.72592"
         y="196.02538"
         style="stroke-width:0.26458332">last_grad.mid</tspan></text>
    <text
       xml:space="preserve"
       style="font-style:normal;font-weight:normal;font-size:4.23333311px;line-height:1.25;font-family:sans-serif;letter-spacing:0px;word-spacing:0px;fill:#000000;fill-opacity:1;stroke:none;stroke-width:0.26458332"
       x="402.96039"
       y="86.505058"
       id="text4568"><tspan
         sodipodi:role="line"
         id="tspan4566"
         x="402.96039"
         y="86.505058"
         style="stroke-width:0.26458332">before_last_grad.mid</tspan></text>
    <circle
       style="opacity:1;fill:#000000;fill-opacity:0;stroke:#000000;stroke-width:0.14999999;stroke-miterlimit:4;stroke-dasharray:none"
       id="path4570"
       cx="449.87167"
       cy="85.135841"
       r="1.2027128" />
    <circle
       r="1.2027128"
       cy="82.490005"
       cx="529.24683"
       id="circle4572"
       style="opacity:1;fill:#000000;fill-opacity:0;stroke:#000000;stroke-width:0.14999999;stroke-miterlimit:4;stroke-dasharray:none" />
    <circle
       style="opacity:1;fill:#000000;fill-opacity:0;stroke:#000000;stroke-width:0.14999999;stroke-miterlimit:4;stroke-dasharray:none"
       id="circle4574"
       cx="571.25208"
       cy="27.12254"
       r="1.2027128" />
    <path
       inkscape:connector-curvature="0"
       id="path4576"
       d="M 468.15362,69.155955 447.55393,87.015331"
       style="fill:none;stroke:#000000;stroke-width:0.26458332px;stroke-linecap:butt;stroke-linejoin:miter;stroke-opacity:1" />
    <path
       sodipodi:nodetypes="cc"
       style="fill:none;stroke:#000000;stroke-width:0.26458332px;stroke-linecap:butt;stroke-linejoin:miter;stroke-opacity:1"
       d="M 529.0644,82.6875 527.75961,42.925794"
       id="path4578"
       inkscape:connector-curvature="0" />
    <circle
       style="opacity:1;fill:#000000;fill-opacity:0;stroke:#00ffff;stroke-width:0.14999999;stroke-miterlimit:4;stroke-dasharray:none"
       id="circle4580"
       cx="521.93323"
       cy="69.093781"
       r="1.2027128" />
    <path
       style="fill:none;stroke:#00ffff;stroke-width:0.26458332;stroke-linecap:butt;stroke-linejoin:miter;stroke-miterlimit:4;stroke-dasharray:0.52916663, 0.52916663;stroke-dashoffset:0;stroke-opacity:1"
       d="m 521.97738,69.119318 14.23209,27.094447"
       id="path4582"
       inkscape:connector-curvature="0" />
    <circle
       r="1.2027128"
       cy="96.081306"
       cx="536.22095"
       id="circle4584"
       style="opacity:1;fill:#000000;fill-opacity:0;stroke:#00ffff;stroke-width:0.14999999;stroke-miterlimit:4;stroke-dasharray:none" />
    <path
       style="opacity:1;fill:#000000;fill-opacity:0;stroke:#000000;stroke-width:0.13229167;stroke-miterlimit:4;stroke-dasharray:none;stroke-dashoffset:0"
       d="m 527.3481,79.086404 0.12112,2.201645 -2.20165,0.12112"
       id="rect4586"
       inkscape:connector-curvature="0"
       sodipodi:nodetypes="ccc" />
    <path
       sodipodi:nodetypes="ccc"
       inkscape:connector-curvature="0"
       id="path4589"
       d="M 451.5281,81.844858 449.88484,83.3151 448.4146,81.671837"
       style="opacity:1;fill:#000000;fill-opacity:0;stroke:#000000;stroke-width:0.13229167;stroke-miterlimit:4;stroke-dasharray:none;stroke-dashoffset:0" />
    <circle
       r="1.2027128"
       cy="68.710068"
       cx="528.47803"
       id="circle4591"
       style="opacity:1;fill:#000000;fill-opacity:0;stroke:#007878;stroke-width:0.14999999;stroke-miterlimit:4;stroke-dasharray:none;stroke-opacity:1" />
    <circle
       style="opacity:1;fill:#000000;fill-opacity:0;stroke:#007878;stroke-width:0.14999999;stroke-miterlimit:4;stroke-dasharray:none;stroke-opacity:1"
       id="circle4593"
       cx="560.79114"
       cy="18.110483"
       r="1.2027128" />
    <text
       xml:space="preserve"
       style="font-style:normal;font-weight:normal;font-size:4.23333311px;line-height:1.25;font-family:sans-serif;letter-spacing:0px;word-spacing:0px;fill:#000000;fill-opacity:1;stroke:none;stroke-width:0.26458332"
       x="498.26505"
       y="18.807009"
       id="text4597"><tspan
         sodipodi:role="line"
         id="tspan4595"
         x="498.26505"
         y="18.807009"
         style="stroke-width:0.26458332">grad.mid +/- grad.half_delta</tspan></text>
    <text
       id="text4601"
       y="-16.849628"
       x="451.90616"
       style="font-style:normal;font-weight:normal;font-size:4.23333311px;line-height:1.25;font-family:sans-serif;letter-spacing:0px;word-spacing:0px;fill:#000000;fill-opacity:1;stroke:none;stroke-width:0.26458332"
       xml:space="preserve"
       transform="rotate(9.130688)"><tspan
         style="stroke-width:0.26458332"
         y="-16.849628"
         x="451.90616"
         id="tspan4599"
         sodipodi:role="line">last_grad.mid +/- last_grad.half_delta</tspan></text>
    <text
       xml:space="preserve"
       style="font-style:normal;font-weight:normal;font-size:4.23333311px;line-height:1.25;font-family:sans-serif;letter-spacing:0px;word-spacing:0px;fill:#000000;fill-opacity:1;stroke:none;stroke-width:0.26458332"
       x="432.31012"
       y="-9.859972"
       id="text3883"><tspan
         sodipodi:role="line"
         id="tspan3881"
         x="432.31012"
         y="-9.859972"
         style="stroke-width:0.26458332">grad.fd_signed.x/grad.fd_signed.y is </tspan><tspan
         sodipodi:role="line"
         x="432.31012"
         y="-4.5683055"
         style="stroke-width:0.26458332"
         id="tspan3885">the slope from last_grad.mid to </tspan><tspan
         sodipodi:role="line"
         x="432.31012"
         y="0.72336078"
         style="stroke-width:0.26458332"
         id="tspan3887">grad.mid</tspan><tspan
         sodipodi:role="line"
         x="432.31012"
         y="6.015027"
         style="stroke-width:0.26458332"
         id="tspan3889">last_grad.fd_signed and </tspan><tspan
         sodipodi:role="line"
         x="432.31012"
         y="11.306694"
         style="stroke-width:0.26458332"
         id="tspan3891">before_last_grad.fd_signed are</tspan><tspan
         sodipodi:role="line"
         x="432.31012"
         y="16.59836"
         style="stroke-width:0.26458332"
         id="tspan3893">defined similarly</tspan></text>
  </g>
</svg>
